<svg width="1280" height="832" viewBox="0 0 1280 832" fill="none" xmlns="http://www.w3.org/2000/svg">
<g clip-path="url(#clip0_57_1353)">
<rect width="1280" height="832" fill="white"/>
<g clip-path="url(#clip1_57_1353)">
<rect width="1280" height="832" fill="#FFF8F8"/>
<g opacity="0.2">
<path d="M698.781 476.162C700.469 508.406 671.148 535.625 635.711 535.625C600.273 535.625 568.844 506.731 572.43 474.697C577.492 429.681 611.031 426.75 635.711 426.75C650.687 426.75 694.984 413.769 698.781 476.162Z" fill="#EF4D3C"/>
<path d="M591.203 466.531C604.281 446.431 626.641 452.294 632.547 444.756C632.547 459.203 643.094 452.084 648.367 458.575C655.117 466.95 657.648 481.816 665.664 484.747C657.859 468.206 670.516 468.834 652.797 446.641C662.289 452.503 667.141 446.641 680.008 451.875C668.828 434.287 651.32 439.312 651.32 439.312C651.32 439.312 662.289 429.262 671.57 434.497C661.867 420.259 633.813 438.266 633.813 438.266C633.813 438.266 622.211 418.584 597.32 439.312C611.875 433.45 627.906 439.312 627.906 439.312C627.906 439.312 601.539 432.822 591.203 466.531Z" fill="#8CC63E"/>
<path d="M591.203 466.531C591.203 466.531 606.602 438.266 633.18 440.778C609.766 430.1 591.203 452.712 591.203 466.531Z" fill="#64892F"/>
<path d="M597.32 439.312C597.32 439.312 616.727 424.866 633.813 439.312C628.75 421.725 602.805 429.891 597.32 439.312ZM638.031 441.197C663.766 452.922 655.117 466.322 665.664 485.166C658.492 469.462 676.211 441.197 638.031 441.197Z" fill="#64892F"/>
<path d="M627.906 439.312C627.906 439.312 633.813 430.519 635.922 419.631C636.133 418.166 642.461 418.375 642.25 419.841C640.141 433.869 645.836 441.616 645.836 441.616C645.836 441.616 641.406 443.081 635.922 443.081C630.438 443.291 627.906 439.312 627.906 439.312Z" fill="#64892F"/>
<path d="M639.086 420.887C640.833 420.887 642.25 420.325 642.25 419.631C642.25 418.937 640.833 418.375 639.086 418.375C637.338 418.375 635.922 418.937 635.922 419.631C635.922 420.325 637.338 420.887 639.086 420.887Z" fill="#8CC63E"/>
</g>
<g opacity="0.3">
<path d="M366.116 97.4489L340.542 72.4919L314.964 47.5349C314.964 47.5349 317.063 97.8584 263.398 110.953C263.398 110.953 268.157 122.145 278.91 132.639C289.663 143.133 301.131 147.777 301.131 147.777C314.549 95.4014 366.116 97.4489 366.116 97.4489Z" fill="#77B255"/>
<path d="M323.772 62.6731C320.419 79.0396 300.292 105.225 300.292 105.225L340.538 65.9491C353.951 52.8586 323.772 62.6731 323.772 62.6731ZM380.788 92.1301C380.788 92.1301 330.481 95.4016 300.292 118.316C337.185 82.3111 353.956 79.0396 353.956 79.0396L380.788 92.1301Z" fill="#5C913B"/>
<path d="M399.053 114.864C400.625 114.978 402.203 114.76 403.682 114.226C405.16 113.692 406.503 112.854 407.62 111.768C409.695 109.743 410.861 106.996 410.861 104.131C410.861 101.267 409.695 98.5204 407.62 96.495C407.228 96.1125 406.79 95.802 406.357 95.487C408.315 95.0313 410.106 94.0582 411.535 92.6745C412.906 91.3234 413.882 89.6393 414.361 87.7965C416.249 87.3266 417.974 86.3745 419.36 85.038C421.435 83.0126 422.601 80.2657 422.601 77.4015C422.601 74.5373 421.435 71.7904 419.36 69.765C420.78 68.3787 421.787 66.6413 422.272 64.7392C422.757 62.837 422.703 60.8418 422.115 58.9675C421.527 57.0931 420.427 55.4103 418.934 54.0995C417.44 52.7887 415.609 51.8992 413.637 51.5265C414.639 49.5157 414.975 47.2507 414.598 45.0454C414.221 42.8402 413.151 40.8039 411.535 39.219C410.106 37.8352 408.315 36.8622 406.357 36.4065C406.79 36.0915 407.228 35.781 407.62 35.3985C409.695 33.3731 410.861 30.6262 410.861 27.762C410.861 24.8978 409.695 22.1509 407.62 20.1255C405.997 18.5469 403.91 17.501 401.65 17.1333C399.39 16.7655 397.069 17.0942 395.009 18.0735C394.499 15.4903 393.036 13.1794 390.897 11.5793C388.758 9.9792 386.091 9.20122 383.402 9.39298C383.519 7.85883 383.296 6.31812 382.749 4.87547C382.201 3.43282 381.342 2.12199 380.23 1.03198C378.155 -0.993255 375.34 -2.13101 372.405 -2.13101C369.47 -2.13101 366.655 -0.993255 364.58 1.03198C362.957 -0.546593 360.87 -1.59246 358.61 -1.96022C356.35 -2.32797 354.028 -1.99934 351.968 -1.02002C351.479 -3.48117 350.127 -5.69939 348.145 -7.29431C346.163 -8.88923 343.674 -9.76147 341.105 -9.76147C338.536 -9.76147 336.047 -8.88923 334.065 -7.29431C332.082 -5.69939 330.731 -3.48117 330.241 -1.02002C328.181 -1.99734 325.86 -2.32487 323.6 -1.9572C321.34 -1.58952 319.254 -0.544847 317.63 1.03198C316.212 2.42627 315.215 4.17469 314.748 6.08548C314.425 5.66248 314.107 5.23498 313.715 4.85248C311.639 2.82725 308.825 1.68949 305.89 1.68949C302.955 1.68949 300.14 2.82725 298.065 4.85248C296.446 6.43459 295.373 8.46966 294.994 10.6747C294.616 12.8796 294.951 15.1449 295.953 17.1555C293.981 17.5282 292.15 18.4177 290.656 19.7285C289.163 21.0393 288.063 22.7221 287.475 24.5965C286.887 26.4708 286.833 28.466 287.318 30.3682C287.804 32.2703 288.81 34.0077 290.23 35.394C291.71 36.8385 293.513 37.752 295.409 38.2065C294.975 38.5215 294.537 38.832 294.145 39.2145C292.725 40.6008 291.718 42.3382 291.233 44.2403C290.748 46.1425 290.802 48.1376 291.39 50.012C291.978 51.8863 293.078 53.5691 294.571 54.88C296.065 56.1908 297.896 57.0803 299.868 57.453C298.866 59.4638 298.53 61.7288 298.907 63.9341C299.284 66.1393 300.354 68.1756 301.97 69.7605C303.593 71.3391 305.68 72.3849 307.94 72.7527C310.2 73.1204 312.522 72.7918 314.582 71.8125C314.977 73.8356 315.963 75.7042 317.421 77.1937C318.879 78.6833 320.746 79.7305 322.799 80.2095C322.365 80.5245 321.927 80.835 321.535 81.2175C319.46 83.2429 318.294 85.9898 318.294 88.854C318.294 91.7182 319.46 94.4651 321.535 96.4905C323.158 98.0691 325.245 99.1149 327.505 99.4827C329.765 99.8504 332.087 99.5218 334.147 98.5425C334.435 100.008 335.034 101.398 335.904 102.625C336.774 103.852 337.896 104.889 339.199 105.67C340.502 106.451 341.957 106.958 343.472 107.159C344.987 107.361 346.529 107.252 347.998 106.84C348.293 107.218 348.57 107.601 348.925 107.947C351.277 110.242 354.417 111.241 357.493 111.043C357.376 112.578 357.599 114.118 358.146 115.561C358.694 117.004 359.553 118.314 360.665 119.404C362.74 121.43 365.555 122.567 368.49 122.567C371.425 122.567 374.24 121.43 376.315 119.404C376.707 119.022 377.025 118.594 377.348 118.171C377.814 120.021 378.75 121.78 380.23 123.225C382.305 125.25 385.12 126.388 388.055 126.388C390.99 126.388 393.805 125.25 395.88 123.225C398.232 120.93 399.255 117.865 399.053 114.864Z" fill="#3E721D"/>
<path d="M310.353 20.5169C314.283 20.5169 317.468 17.4082 317.468 13.5734C317.468 9.73859 314.283 6.62988 310.353 6.62988C306.424 6.62988 303.238 9.73859 303.238 13.5734C303.238 17.4082 306.424 20.5169 310.353 20.5169Z" fill="#5C913B"/>
<path d="M330.481 20.5169C334.41 20.5169 337.596 17.4082 337.596 13.5734C337.596 9.73859 334.41 6.62988 330.481 6.62988C326.551 6.62988 323.366 9.73859 323.366 13.5734C323.366 17.4082 326.551 20.5169 330.481 20.5169Z" fill="#5C913B"/>
<path d="M343.894 7.42655C347.824 7.42655 351.009 4.31784 351.009 0.483051C351.009 -3.35174 347.824 -6.46045 343.894 -6.46045C339.965 -6.46045 336.78 -3.35174 336.78 0.483051C336.78 4.31784 339.965 7.42655 343.894 7.42655Z" fill="#5C913B"/>
<path d="M360.665 17.2454C364.595 17.2454 367.78 14.1367 367.78 10.3019C367.78 6.46711 364.595 3.3584 360.665 3.3584C356.736 3.3584 353.55 6.46711 353.55 10.3019C353.55 14.1367 356.736 17.2454 360.665 17.2454Z" fill="#5C913B"/>
<path d="M374.079 17.2454C378.008 17.2454 381.194 14.1367 381.194 10.3019C381.194 6.46711 378.008 3.3584 374.079 3.3584C370.149 3.3584 366.964 6.46711 366.964 10.3019C366.964 14.1367 370.149 17.2454 374.079 17.2454Z" fill="#5C913B"/>
<path d="M377.436 27.0645C381.365 27.0645 384.551 23.9558 384.551 20.121C384.551 16.2862 381.365 13.1775 377.436 13.1775C373.506 13.1775 370.321 16.2862 370.321 20.121C370.321 23.9558 373.506 27.0645 377.436 27.0645Z" fill="#5C913B"/>
<path d="M387.497 30.336C391.427 30.336 394.612 27.2273 394.612 23.3925C394.612 19.5577 391.427 16.449 387.497 16.449C383.568 16.449 380.382 19.5577 380.382 23.3925C380.382 27.2273 383.568 30.336 387.497 30.336Z" fill="#5C913B"/>
<path d="M400.911 36.8836C404.84 36.8836 408.026 33.7749 408.026 29.9401C408.026 26.1053 404.84 22.9966 400.911 22.9966C396.981 22.9966 393.796 26.1053 393.796 29.9401C393.796 33.7749 396.981 36.8836 400.911 36.8836Z" fill="#5C913B"/>
<path d="M397.559 46.7024C401.488 46.7024 404.673 43.5937 404.673 39.7589C404.673 35.9241 401.488 32.8154 397.559 32.8154C393.629 32.8154 390.444 35.9241 390.444 39.7589C390.444 43.5937 393.629 46.7024 397.559 46.7024Z" fill="#5C913B"/>
<path d="M407.62 63.0689C411.55 63.0689 414.735 59.9602 414.735 56.1254C414.735 52.2906 411.55 49.1819 407.62 49.1819C403.691 49.1819 400.505 52.2906 400.505 56.1254C400.505 59.9602 403.691 63.0689 407.62 63.0689Z" fill="#5C913B"/>
<path d="M410.972 79.4356C414.902 79.4356 418.087 76.3269 418.087 72.4921C418.087 68.6573 414.902 65.5486 410.972 65.5486C407.043 65.5486 403.857 68.6573 403.857 72.4921C403.857 76.3269 407.043 79.4356 410.972 79.4356Z" fill="#5C913B"/>
<path d="M384.14 46.7024C388.07 46.7024 391.255 43.5937 391.255 39.7589C391.255 35.9241 388.07 32.8154 384.14 32.8154C380.211 32.8154 377.025 35.9241 377.025 39.7589C377.025 43.5937 380.211 46.7024 384.14 46.7024Z" fill="#5C913B"/>
<path d="M370.727 33.6121C374.656 33.6121 377.841 30.5034 377.841 26.6686C377.841 22.8338 374.656 19.7251 370.727 19.7251C366.797 19.7251 363.612 22.8338 363.612 26.6686C363.612 30.5034 366.797 33.6121 370.727 33.6121Z" fill="#5C913B"/>
<path d="M353.956 23.793C357.885 23.793 361.071 20.6843 361.071 16.8495C361.071 13.0147 357.885 9.90601 353.956 9.90601C350.027 9.90601 346.841 13.0147 346.841 16.8495C346.841 20.6843 350.027 23.793 353.956 23.793Z" fill="#5C913B"/>
<path d="M333.833 30.336C337.763 30.336 340.948 27.2273 340.948 23.3925C340.948 19.5577 337.763 16.449 333.833 16.449C329.904 16.449 326.718 19.5577 326.718 23.3925C326.718 27.2273 329.904 30.336 333.833 30.336Z" fill="#5C913B"/>
<path d="M340.542 23.793C344.472 23.793 347.657 20.6843 347.657 16.8495C347.657 13.0147 344.472 9.90601 340.542 9.90601C336.613 9.90601 333.427 13.0147 333.427 16.8495C333.427 20.6843 336.613 23.793 340.542 23.793Z" fill="#5C913B"/>
<path d="M320.415 36.8836C324.344 36.8836 327.53 33.7749 327.53 29.9401C327.53 26.1053 324.344 22.9966 320.415 22.9966C316.485 22.9966 313.3 26.1053 313.3 29.9401C313.3 33.7749 316.485 36.8836 320.415 36.8836Z" fill="#5C913B"/>
<path d="M353.956 43.4309C357.885 43.4309 361.071 40.3222 361.071 36.4874C361.071 32.6527 357.885 29.5439 353.956 29.5439C350.027 29.5439 346.841 32.6527 346.841 36.4874C346.841 40.3222 350.027 43.4309 353.956 43.4309Z" fill="#5C913B"/>
<path d="M377.436 66.3406C381.365 66.3406 384.551 63.2319 384.551 59.3971C384.551 55.5623 381.365 52.4536 377.436 52.4536C373.506 52.4536 370.321 55.5623 370.321 59.3971C370.321 63.2319 373.506 66.3406 377.436 66.3406Z" fill="#5C913B"/>
<path d="M384.14 85.9829C388.07 85.9829 391.255 82.8742 391.255 79.0395C391.255 75.2047 388.07 72.0959 384.14 72.0959C380.211 72.0959 377.025 75.2047 377.025 79.0395C377.025 82.8742 380.211 85.9829 384.14 85.9829Z" fill="#5C913B"/>
</g>
<g opacity="0.3">
<path d="M1251.12 614.449L1225.54 589.492L1199.96 564.535C1199.96 564.535 1202.06 614.858 1148.4 627.953C1148.4 627.953 1153.16 639.145 1163.91 649.639C1174.66 660.133 1186.13 664.777 1186.13 664.777C1199.55 612.401 1251.12 614.449 1251.12 614.449Z" fill="#77B255"/>
<path d="M1208.77 579.673C1205.42 596.04 1185.29 622.225 1185.29 622.225L1225.54 582.949C1238.95 569.859 1208.77 579.673 1208.77 579.673ZM1265.79 609.13C1265.79 609.13 1215.48 612.402 1185.29 635.316C1222.19 599.311 1238.96 596.04 1238.96 596.04L1265.79 609.13Z" fill="#5C913B"/>
<path d="M1284.05 631.864C1285.62 631.978 1287.2 631.76 1288.68 631.226C1290.16 630.692 1291.5 629.854 1292.62 628.768C1294.7 626.743 1295.86 623.996 1295.86 621.131C1295.86 618.267 1294.7 615.52 1292.62 613.495C1292.23 613.112 1291.79 612.802 1291.36 612.487C1293.31 612.031 1295.11 611.058 1296.53 609.674C1297.91 608.323 1298.88 606.639 1299.36 604.796C1301.25 604.327 1302.97 603.374 1304.36 602.038C1306.44 600.013 1307.6 597.266 1307.6 594.401C1307.6 591.537 1306.44 588.79 1304.36 586.765C1305.78 585.379 1306.79 583.641 1307.27 581.739C1307.76 579.837 1307.7 577.842 1307.12 575.967C1306.53 574.093 1305.43 572.41 1303.93 571.1C1302.44 569.789 1300.61 568.899 1298.64 568.526C1299.64 566.516 1299.97 564.251 1299.6 562.045C1299.22 559.84 1298.15 557.804 1296.53 556.219C1295.11 554.835 1293.31 553.862 1291.36 553.406C1291.79 553.091 1292.23 552.781 1292.62 552.398C1294.7 550.373 1295.86 547.626 1295.86 544.762C1295.86 541.898 1294.7 539.151 1292.62 537.125C1291 535.547 1288.91 534.501 1286.65 534.133C1284.39 533.766 1282.07 534.094 1280.01 535.073C1279.5 532.49 1278.04 530.179 1275.9 528.579C1273.76 526.979 1271.09 526.201 1268.4 526.393C1268.52 524.859 1268.3 523.318 1267.75 521.875C1267.2 520.433 1266.34 519.122 1265.23 518.032C1263.15 516.007 1260.34 514.869 1257.41 514.869C1254.47 514.869 1251.66 516.007 1249.58 518.032C1247.96 516.453 1245.87 515.408 1243.61 515.04C1241.35 514.672 1239.03 515.001 1236.97 515.98C1236.48 513.519 1235.13 511.301 1233.14 509.706C1231.16 508.111 1228.67 507.239 1226.1 507.239C1223.54 507.239 1221.05 508.111 1219.06 509.706C1217.08 511.301 1215.73 513.519 1215.24 515.98C1213.18 515.003 1210.86 514.675 1208.6 515.043C1206.34 515.41 1204.25 516.455 1202.63 518.032C1201.21 519.426 1200.21 521.175 1199.75 523.085C1199.42 522.662 1199.11 522.235 1198.71 521.852C1196.64 519.827 1193.82 518.689 1190.89 518.689C1187.95 518.689 1185.14 519.827 1183.06 521.852C1181.45 523.435 1180.37 525.47 1179.99 527.675C1179.62 529.88 1179.95 532.145 1180.95 534.155C1178.98 534.528 1177.15 535.418 1175.66 536.729C1174.16 538.039 1173.06 539.722 1172.48 541.596C1171.89 543.471 1171.83 545.466 1172.32 547.368C1172.8 549.27 1173.81 551.008 1175.23 552.394C1176.71 553.838 1178.51 554.752 1180.41 555.206C1179.98 555.521 1179.54 555.832 1179.15 556.214C1177.73 557.601 1176.72 559.338 1176.23 561.24C1175.75 563.142 1175.8 565.138 1176.39 567.012C1176.98 568.886 1178.08 570.569 1179.57 571.88C1181.06 573.191 1182.9 574.08 1184.87 574.453C1183.87 576.464 1183.53 578.729 1183.91 580.934C1184.28 583.139 1185.35 585.176 1186.97 586.76C1188.59 588.339 1190.68 589.385 1192.94 589.753C1195.2 590.12 1197.52 589.792 1199.58 588.812C1199.98 590.836 1200.96 592.704 1202.42 594.194C1203.88 595.683 1205.75 596.73 1207.8 597.209C1207.37 597.524 1206.93 597.835 1206.54 598.217C1204.46 600.243 1203.29 602.99 1203.29 605.854C1203.29 608.718 1204.46 611.465 1206.54 613.49C1208.16 615.069 1210.24 616.115 1212.51 616.483C1214.77 616.85 1217.09 616.522 1219.15 615.542C1219.44 617.008 1220.03 618.398 1220.9 619.625C1221.77 620.852 1222.9 621.889 1224.2 622.67C1225.5 623.451 1226.96 623.958 1228.47 624.159C1229.99 624.361 1231.53 624.252 1233 623.84C1233.29 624.218 1233.57 624.601 1233.93 624.947C1236.28 627.242 1239.42 628.241 1242.49 628.043C1242.38 629.578 1242.6 631.118 1243.15 632.561C1243.69 634.004 1244.55 635.314 1245.67 636.404C1247.74 638.43 1250.56 639.567 1253.49 639.567C1256.43 639.567 1259.24 638.43 1261.32 636.404C1261.71 636.022 1262.03 635.594 1262.35 635.171C1262.81 637.021 1263.75 638.78 1265.23 640.225C1267.31 642.25 1270.12 643.388 1273.06 643.388C1275.99 643.388 1278.8 642.25 1280.88 640.225C1283.23 637.93 1284.26 634.865 1284.05 631.864Z" fill="#3E721D"/>
<path d="M1195.35 537.517C1199.28 537.517 1202.47 534.408 1202.47 530.573C1202.47 526.739 1199.28 523.63 1195.35 523.63C1191.42 523.63 1188.24 526.739 1188.24 530.573C1188.24 534.408 1191.42 537.517 1195.35 537.517Z" fill="#5C913B"/>
<path d="M1215.48 537.517C1219.41 537.517 1222.6 534.408 1222.6 530.573C1222.6 526.739 1219.41 523.63 1215.48 523.63C1211.55 523.63 1208.37 526.739 1208.37 530.573C1208.37 534.408 1211.55 537.517 1215.48 537.517Z" fill="#5C913B"/>
<path d="M1228.89 524.427C1232.82 524.427 1236.01 521.318 1236.01 517.483C1236.01 513.648 1232.82 510.54 1228.89 510.54C1224.97 510.54 1221.78 513.648 1221.78 517.483C1221.78 521.318 1224.97 524.427 1228.89 524.427Z" fill="#5C913B"/>
<path d="M1245.67 534.245C1249.59 534.245 1252.78 531.137 1252.78 527.302C1252.78 523.467 1249.59 520.358 1245.67 520.358C1241.74 520.358 1238.55 523.467 1238.55 527.302C1238.55 531.137 1241.74 534.245 1245.67 534.245Z" fill="#5C913B"/>
<path d="M1259.08 534.245C1263.01 534.245 1266.19 531.137 1266.19 527.302C1266.19 523.467 1263.01 520.358 1259.08 520.358C1255.15 520.358 1251.96 523.467 1251.96 527.302C1251.96 531.137 1255.15 534.245 1259.08 534.245Z" fill="#5C913B"/>
<path d="M1262.44 544.064C1266.37 544.064 1269.55 540.956 1269.55 537.121C1269.55 533.286 1266.37 530.177 1262.44 530.177C1258.51 530.177 1255.32 533.286 1255.32 537.121C1255.32 540.956 1258.51 544.064 1262.44 544.064Z" fill="#5C913B"/>
<path d="M1272.5 547.336C1276.43 547.336 1279.61 544.227 1279.61 540.392C1279.61 536.558 1276.43 533.449 1272.5 533.449C1268.57 533.449 1265.38 536.558 1265.38 540.392C1265.38 544.227 1268.57 547.336 1272.5 547.336Z" fill="#5C913B"/>
<path d="M1285.91 553.884C1289.84 553.884 1293.03 550.775 1293.03 546.94C1293.03 543.105 1289.84 539.997 1285.91 539.997C1281.98 539.997 1278.8 543.105 1278.8 546.94C1278.8 550.775 1281.98 553.884 1285.91 553.884Z" fill="#5C913B"/>
<path d="M1282.56 563.702C1286.49 563.702 1289.67 560.594 1289.67 556.759C1289.67 552.924 1286.49 549.815 1282.56 549.815C1278.63 549.815 1275.44 552.924 1275.44 556.759C1275.44 560.594 1278.63 563.702 1282.56 563.702Z" fill="#5C913B"/>
<path d="M1269.14 563.702C1273.07 563.702 1276.26 560.594 1276.26 556.759C1276.26 552.924 1273.07 549.815 1269.14 549.815C1265.21 549.815 1262.03 552.924 1262.03 556.759C1262.03 560.594 1265.21 563.702 1269.14 563.702Z" fill="#5C913B"/>
<path d="M1255.73 550.612C1259.66 550.612 1262.84 547.503 1262.84 543.669C1262.84 539.834 1259.66 536.725 1255.73 536.725C1251.8 536.725 1248.61 539.834 1248.61 543.669C1248.61 547.503 1251.8 550.612 1255.73 550.612Z" fill="#5C913B"/>
<path d="M1238.96 540.793C1242.89 540.793 1246.07 537.684 1246.07 533.85C1246.07 530.015 1242.89 526.906 1238.96 526.906C1235.03 526.906 1231.84 530.015 1231.84 533.85C1231.84 537.684 1235.03 540.793 1238.96 540.793Z" fill="#5C913B"/>
<path d="M1218.83 547.336C1222.76 547.336 1225.95 544.227 1225.95 540.392C1225.95 536.558 1222.76 533.449 1218.83 533.449C1214.9 533.449 1211.72 536.558 1211.72 540.392C1211.72 544.227 1214.9 547.336 1218.83 547.336Z" fill="#5C913B"/>
<path d="M1225.54 540.793C1229.47 540.793 1232.66 537.684 1232.66 533.85C1232.66 530.015 1229.47 526.906 1225.54 526.906C1221.61 526.906 1218.43 530.015 1218.43 533.85C1218.43 537.684 1221.61 540.793 1225.54 540.793Z" fill="#5C913B"/>
<path d="M1205.41 553.884C1209.34 553.884 1212.53 550.775 1212.53 546.94C1212.53 543.105 1209.34 539.997 1205.41 539.997C1201.49 539.997 1198.3 543.105 1198.3 546.94C1198.3 550.775 1201.49 553.884 1205.41 553.884Z" fill="#5C913B"/>
<path d="M1238.96 560.431C1242.89 560.431 1246.07 557.322 1246.07 553.487C1246.07 549.653 1242.89 546.544 1238.96 546.544C1235.03 546.544 1231.84 549.653 1231.84 553.487C1231.84 557.322 1235.03 560.431 1238.96 560.431Z" fill="#5C913B"/>
<path d="M1262.44 583.341C1266.37 583.341 1269.55 580.232 1269.55 576.397C1269.55 572.562 1266.37 569.454 1262.44 569.454C1258.51 569.454 1255.32 572.562 1255.32 576.397C1255.32 580.232 1258.51 583.341 1262.44 583.341Z" fill="#5C913B"/>
<path d="M1269.14 602.983C1273.07 602.983 1276.26 599.874 1276.26 596.039C1276.26 592.205 1273.07 589.096 1269.14 589.096C1265.21 589.096 1262.03 592.205 1262.03 596.039C1262.03 599.874 1265.21 602.983 1269.14 602.983Z" fill="#5C913B"/>
</g>
<g opacity="0.25">
<rect width="160" height="154" transform="translate(127 388)" fill="white" fill-opacity="0.2"/>
<path d="M245.298 526.775C244.133 524.834 242.586 523.131 240.742 521.762C241.2 519.961 240.991 518.19 239.378 517.043C235.378 514.212 200.178 518.01 197.662 530.121C196.622 535.13 200.275 535.13 202.275 533.581C201.667 535.716 201.333 537.906 201.524 539.955C201.601 540.489 201.887 540.973 202.325 541.309C202.763 541.644 203.318 541.805 203.875 541.757C204.433 541.709 204.949 541.457 205.318 541.052C205.688 540.647 205.881 540.121 205.858 539.583C205.724 538.154 205.955 536.614 206.351 535.087C207.244 535.857 208.235 536.486 209.4 536.238C210.787 535.938 211.667 534.621 212.244 533.192C212.311 534.099 212.449 534.681 212.467 534.745C212.615 535.276 212.975 535.729 213.469 536.005C213.962 536.282 214.549 536.359 215.102 536.221L215.129 536.212C215.678 536.067 216.146 535.722 216.435 535.25C216.724 534.778 216.81 534.216 216.675 533.684C216.521 532.887 216.493 532.072 216.591 531.267C218.555 532.409 221.035 533.444 223.067 532.97C225.649 532.362 226.884 530.27 227.498 528.208C229.449 529.971 230.6 532.037 231.755 534.428C231.876 534.678 232.046 534.901 232.256 535.087C232.466 535.273 232.712 535.417 232.98 535.512C233.248 535.606 233.533 535.649 233.818 535.637C234.103 535.626 234.383 535.56 234.642 535.444C234.901 535.329 235.134 535.165 235.327 534.963C235.52 534.76 235.67 534.524 235.768 534.266C235.866 534.008 235.91 533.733 235.898 533.459C235.886 533.185 235.818 532.915 235.698 532.666C234.875 530.959 233.858 528.901 232.173 526.899C233.711 527.888 235.333 528.581 236.395 527.982C237.133 527.567 238.013 526.69 238.818 525.616C240.493 527.053 241.435 528.7 241.449 528.726C241.721 529.215 242.184 529.58 242.735 529.742C243.286 529.904 243.881 529.849 244.391 529.59C244.643 529.463 244.866 529.289 245.049 529.079C245.231 528.869 245.368 528.626 245.452 528.364C245.536 528.103 245.566 527.828 245.539 527.555C245.513 527.282 245.431 527.017 245.298 526.775Z" fill="#D39954"/>
<path d="M223.48 415.036C211.298 411.049 196.911 401.629 193.462 389.241C192.249 384.877 189.231 394.759 185.058 395.833C180.884 396.911 173.138 389.805 174.355 394.169C177.804 406.557 170.24 421.64 161.76 430.953C145.871 448.407 133.818 469.239 140.027 491.548C148.915 523.482 184.915 537.517 221.849 527.99C258.782 518.464 282.667 488.986 273.778 457.056C267.564 434.748 246.302 422.505 223.48 415.036Z" fill="#EDD6A6"/>
<path d="M187.711 527.391C173.062 518.866 152.875 504.835 151.147 479.352C149.258 451.465 173.084 436.155 174.72 420.207C176.693 439.149 158.902 451.161 160.435 475.245C161.827 497.066 171.231 513.065 187.711 527.391Z" fill="#E2A759"/>
<path d="M214.84 528.675C201.076 520.402 184.031 503.367 179.533 480.751C173.058 448.193 184.436 428.797 180.436 404.221C188.867 432.643 185.031 445.96 190.667 474.103C194.333 492.421 203.556 517.792 214.84 528.675ZM251.098 511.046C259.356 496.613 270.218 474.574 258.476 451.671C245.627 426.611 216.369 424.99 206.667 411.968C214.796 429.323 237.111 430.992 248.298 452.586C258.431 472.153 257.924 490.71 251.098 511.046Z" fill="#E2A759"/>
<path d="M228.271 525.214C235.893 511.427 241.804 488.472 233.951 466.72C222.649 435.406 202.72 424.087 193.413 400.876C200.876 429.55 211.116 439.231 220.853 466.318C227.196 483.942 232.391 510.357 228.271 525.214Z" fill="#E2A759"/>
</g>
<g opacity="0.2" clip-path="url(#clip2_57_1353)">
<path d="M1059.09 13.1651C1059.3 12.0029 1059.31 10.8406 1059.75 9.79859C1060.52 7.98171 1061.22 6.03124 1062.56 4.50827C1064.33 2.53108 1067.11 2.58452 1070.28 4.20101C1070.87 3.07882 1071.2 1.7696 1072.12 0.887882C1073.82 -0.741962 1075.6 -2.51876 1077.81 -3.52071C1080.97 -4.95016 1083.05 -3.81462 1085.33 -0.0339142C1088.83 -1.18282 1092.61 -3.60087 1096.09 -0.55493C1099.32 2.27726 1096.78 5.22968 1095.1 8.12866C1095.83 8.40921 1096.43 8.63632 1097.02 8.89015C1100.15 10.1994 1101.29 12.8579 1098.93 15.2359C1096.65 17.5337 1093.42 19.1769 1090.51 21.1674C1093.71 25.4424 1091.33 27.5131 1080.11 29.7575C1079.77 31.4809 1080.03 33.3244 1079.07 34.4466C1077.52 36.2501 1074.85 35.9028 1072.49 35.2883C1067.75 34.0592 1063.26 34.6337 1059.02 36.5975C1055.45 38.2674 1051.97 40.0976 1048.75 42.1951C1053.55 41.4469 1058.31 40.3515 1063.16 40.0309C1068.66 39.6701 1074.22 39.8973 1079.75 40.1244C1081.11 40.1778 1082.37 41.2866 1083.73 41.821C1084.83 42.2485 1085.98 42.6092 1087.14 42.863C1091.06 43.6913 1091.9 44.5463 1091.82 47.8594C1094.92 48.9015 1096.69 50.5313 1094.86 53.5105C1094.68 53.791 1095.1 54.3788 1095.36 54.7662C1095.65 55.1937 1096.1 55.5277 1096.44 55.9285C1098.29 58.0794 1099.87 60.444 1098.06 62.9555C1096.15 65.6141 1092.74 65.7877 1089.34 65.4537C1088.47 65.3736 1087.61 65.2266 1086.79 65.1198C1085.17 68.6466 1082.84 69.2344 1079.17 66.9901C1077.6 66.0282 1076.28 64.7724 1074.84 63.6502C1070.11 66.6294 1068.45 66.0549 1064.47 59.9898C1060.02 61.2322 1058.36 60.4707 1057.05 56.6499C1055.92 53.3501 1054.36 51.9341 1050.13 52.0276C1046.78 52.1077 1043.46 53.1498 1040.16 53.8845C1039.16 54.1116 1038.3 54.7395 1037.9 54.5391L1028.94 47.0579C1029.6 45.8155 1030.87 43.865 1031.67 41.8076C1032.21 40.445 1032.34 38.9087 1032.26 37.4659C1032.03 33.7252 1030.67 32.4694 1026.29 31.4274C1021.92 30.3987 1020.82 28.6487 1022.59 25.6695C1020.64 24.4271 1018.48 23.3851 1016.88 21.9155C1014.81 20.0185 1015.94 18.2951 1018.27 17.0928C1016.47 15.2759 1014.47 13.753 1013.24 11.896C1011.48 9.25085 1012.45 7.92827 1016.34 7.11335C1016.18 6.20491 1015.96 5.28312 1015.86 4.3346C1015.6 1.71616 1015.92 -0.902274 1018.91 -2.38516C1021.73 -3.7879 1024.54 -2.78595 1026.94 -1.32977C1028.63 -0.301102 1029.94 0.500461 1032.39 -0.167508C1035.07 -0.902273 1036.4 0.994757 1037.22 2.79827C1041.17 2.67804 1042.22 3.34601 1043.2 6.36523C1043.67 7.78132 1043.48 9.3978 1045.63 10.2662C1046.31 10.5334 1046.54 11.8426 1046.67 12.7109C1047.85 20.593 1047.33 28.3948 1044.55 36.0364C1044.29 36.7311 1044.09 37.4391 1043.88 38.1338C1043.87 38.1739 1043.98 38.2541 1044.32 38.6014C1049.32 32.2423 1055.61 26.4711 1052.31 18.0012C1052.05 17.3199 1051.92 16.5451 1052 15.8237C1052.37 12.6842 1054.65 11.7891 1059.09 13.1651Z" fill="#0F9D58"/>
<path d="M1050.76 62.6615C1048.07 51.5332 1031.38 40.8991 1017.96 39.109C999.492 35.7023 989.045 45.0405 979.762 55.0467C979.148 55.7013 979.342 56.6498 980.167 57.1174C983.223 58.8541 986.263 60.7244 989.255 62.7417C990.824 63.7971 989.271 65.8411 987.444 65.1197C983.563 63.5967 979.811 62.1806 976.172 60.8714C975.428 60.6042 974.555 60.7912 974.054 61.339C963.396 73.1486 952.998 85.1186 942.567 97.0619C942.001 97.7165 942.179 98.6116 942.955 99.0792C944.896 100.255 946.836 101.471 948.745 102.753C950.346 103.822 948.777 105.892 946.917 105.158C944.443 104.182 942.017 103.261 939.624 102.366C938.864 102.085 937.99 102.285 937.489 102.847C930.956 110.274 924.228 117.582 917.775 125.05C908.768 135.457 900.924 149.872 905.258 155.028C909.204 159.744 928.966 157.139 943.44 147.681C947.386 145.102 951.607 142.818 955.731 140.426C956.426 140.026 956.669 139.278 956.329 138.636C955.327 136.806 954.275 134.949 953.192 133.052C952.319 131.529 954.793 130.247 956.071 131.556C957.526 133.025 958.917 134.522 960.243 136.018C960.809 136.659 961.876 136.806 962.669 136.338C977.175 127.829 991.746 119.385 1006.41 111.076C1007.11 110.688 1007.37 109.954 1007.03 109.312C1005.39 106.213 1003.63 103.007 1001.72 99.6937C1000.85 98.1841 1003.32 96.9016 1004.6 98.1975C1007.21 100.843 1009.63 103.541 1011.86 106.253C1012.41 106.921 1013.5 107.095 1014.29 106.641C1017.93 104.597 1021.55 102.539 1025.21 100.509C1041.78 91.2907 1052.89 80.2024 1050.76 62.6615Z" fill="#F57C00"/>
</g>
<g opacity="0.2" clip-path="url(#clip3_57_1353)">
<path d="M1087.27 435.33L993.477 342.207C993.477 342.207 960.594 359.846 948.624 388.436C948.624 388.436 975.848 413.72 1005.73 427.734C1042.88 445.153 1073.64 441.374 1085.67 439.157C1086.15 439.07 1086.6 438.882 1086.97 438.611C1087.34 438.341 1087.62 437.997 1087.78 437.613C1087.94 437.228 1087.98 436.816 1087.89 436.417C1087.8 436.017 1087.59 435.643 1087.27 435.33Z" fill="#CCD6DD"/>
<path d="M983.414 332.135L959.877 349.139C960.262 349.273 961.72 351.289 960.892 354.428C958.547 363.339 947.207 374.915 943.543 378.785C942.412 379.98 942.237 382.087 943.695 383.596L948.624 388.436C959.247 369.497 986.868 346.898 993.477 342.207L983.414 332.135Z" fill="#AAB8C2"/>
<path d="M983.414 332.135C983.414 332.135 964.048 311.992 949.797 298.757C935.546 285.523 925.88 277.921 916.646 273.058C907.225 268.098 897.163 270.979 889.556 276.469C881.949 281.959 873.788 294.281 882.591 302.455C887.409 306.932 898.837 302.828 904.705 308.279C908.689 311.977 910.719 314.801 924.912 326.717C946.839 345.13 959.877 349.134 959.877 349.134C959.877 349.134 967.174 344.156 971.147 341.26C975.26 338.24 979.349 335.198 983.414 332.135Z" fill="#31373D"/>
<path d="M945.772 326.894C950.169 326.894 953.734 323.974 953.734 320.372C953.734 316.77 950.169 313.85 945.772 313.85C941.374 313.85 937.809 316.77 937.809 320.372C937.809 323.974 941.374 326.894 945.772 326.894Z" fill="#F5F8FA"/>
<path d="M912.434 298.753C916.832 298.753 920.397 295.833 920.397 292.231C920.397 288.629 916.832 285.709 912.434 285.709C908.037 285.709 904.472 288.629 904.472 292.231C904.472 295.833 908.037 298.753 912.434 298.753Z" fill="#F5F8FA"/>
</g>
<g opacity="0.2" clip-path="url(#clip4_57_1353)">
<path d="M69.4859 165.191L40.137 152.535C36.8609 160.132 36.7546 168.727 39.8417 176.429C42.9287 184.131 48.9561 190.309 56.5979 193.605L85.9468 206.261C92.7977 190.508 85.4014 172.054 69.4859 165.191Z" fill="url(#paint0_linear_57_1353)"/>
<g filter="url(#filter0_f_57_1353)">
<path d="M57.6412 191.185C51.0659 188.35 45.7803 183.176 42.8202 176.676C39.8601 170.177 39.4389 162.822 41.6392 156.052L68.4425 167.61C75.0174 170.448 80.3028 175.622 83.2642 182.121C86.2257 188.62 86.6501 195.976 84.4543 202.748L57.6412 191.185Z" fill="url(#paint1_linear_57_1353)"/>
</g>
<g filter="url(#filter1_f_57_1353)">
<path d="M52.4199 160.701L68.4426 167.61C75.0174 170.448 80.3028 175.622 83.2643 182.121C86.2257 188.62 86.6501 195.976 84.4543 202.748C81.5818 178.957 76.9253 177.816 52.4199 160.701Z" fill="url(#paint2_linear_57_1353)"/>
</g>
<path d="M96.4184 207.678C88.7071 207.623 81.309 204.433 75.9764 198.863C59.2276 181.483 31.4349 181.147 14.3901 198.185C-1.44091 214.014 -10.6087 235.273 -11.254 257.651C-11.5916 269.67 -7.44852 281.407 0.376276 290.599C8.20107 299.791 19.1534 305.786 31.1213 307.429C37.3862 308.294 43.3241 310.855 48.2536 314.817C57.6514 322.42 69.5348 326.287 81.5983 325.668C93.6617 325.049 105.045 319.988 113.54 311.467C129.374 295.628 138.534 274.387 139.184 252C139.924 227.931 120.602 207.95 96.4184 207.678Z" fill="url(#paint3_radial_57_1353)"/>
<path d="M96.4184 207.678C88.7071 207.623 81.309 204.433 75.9764 198.863C59.2276 181.483 31.4349 181.147 14.3901 198.185C-1.44091 214.014 -10.6087 235.273 -11.254 257.651C-11.5916 269.67 -7.44852 281.407 0.376276 290.599C8.20107 299.791 19.1534 305.786 31.1213 307.429C37.3862 308.294 43.3241 310.855 48.2536 314.817C57.6514 322.42 69.5348 326.287 81.5983 325.668C93.6617 325.049 105.045 319.988 113.54 311.467C129.374 295.628 138.534 274.387 139.184 252C139.924 227.931 120.602 207.95 96.4184 207.678Z" fill="url(#paint4_radial_57_1353)"/>
<path d="M96.4184 207.678C88.7071 207.623 81.309 204.433 75.9764 198.863C59.2276 181.483 31.4349 181.147 14.3901 198.185C-1.44091 214.014 -10.6087 235.273 -11.254 257.651C-11.5916 269.67 -7.44852 281.407 0.376276 290.599C8.20107 299.791 19.1534 305.786 31.1213 307.429C37.3862 308.294 43.3241 310.855 48.2536 314.817C57.6514 322.42 69.5348 326.287 81.5983 325.668C93.6617 325.049 105.045 319.988 113.54 311.467C129.374 295.628 138.534 274.387 139.184 252C139.924 227.931 120.602 207.95 96.4184 207.678Z" fill="url(#paint5_radial_57_1353)"/>
<path d="M96.4184 207.678C88.7071 207.623 81.309 204.433 75.9764 198.863C59.2276 181.483 31.4349 181.147 14.3901 198.185C-1.44091 214.014 -10.6087 235.273 -11.254 257.651C-11.5916 269.67 -7.44852 281.407 0.376276 290.599C8.20107 299.791 19.1534 305.786 31.1213 307.429C37.3862 308.294 43.3241 310.855 48.2536 314.817C57.6514 322.42 69.5348 326.287 81.5983 325.668C93.6617 325.049 105.045 319.988 113.54 311.467C129.374 295.628 138.534 274.387 139.184 252C139.924 227.931 120.602 207.95 96.4184 207.678Z" fill="url(#paint6_linear_57_1353)"/>
<path d="M96.4184 207.678C88.7071 207.623 81.309 204.433 75.9764 198.863C59.2276 181.483 31.4349 181.147 14.3901 198.185C-1.44091 214.014 -10.6087 235.273 -11.254 257.651C-11.5916 269.67 -7.44852 281.407 0.376276 290.599C8.20107 299.791 19.1534 305.786 31.1213 307.429C37.3862 308.294 43.3241 310.855 48.2536 314.817C57.6514 322.42 69.5348 326.287 81.5983 325.668C93.6617 325.049 105.045 319.988 113.54 311.467C129.374 295.628 138.534 274.387 139.184 252C139.924 227.931 120.602 207.95 96.4184 207.678Z" fill="url(#paint7_radial_57_1353)"/>
</g>
<g opacity="0.2">
<path d="M1278.78 214.162C1280.47 246.406 1251.15 273.625 1215.71 273.625C1180.27 273.625 1148.84 244.731 1152.43 212.697C1157.49 167.681 1191.03 164.75 1215.71 164.75C1230.69 164.75 1274.98 151.769 1278.78 214.162Z" fill="#EF4D3C"/>
<path d="M1171.2 204.531C1184.28 184.431 1206.64 190.294 1212.55 182.756C1212.55 197.203 1223.09 190.084 1228.37 196.575C1235.12 204.95 1237.65 219.816 1245.66 222.747C1237.86 206.206 1250.52 206.834 1232.8 184.641C1242.29 190.503 1247.14 184.641 1260.01 189.875C1248.83 172.287 1231.32 177.312 1231.32 177.312C1231.32 177.312 1242.29 167.262 1251.57 172.497C1241.87 158.259 1213.81 176.266 1213.81 176.266C1213.81 176.266 1202.21 156.584 1177.32 177.312C1191.87 171.45 1207.91 177.312 1207.91 177.312C1207.91 177.312 1181.54 170.822 1171.2 204.531Z" fill="#8CC63E"/>
<path d="M1171.2 204.531C1171.2 204.531 1186.6 176.266 1213.18 178.778C1189.77 168.1 1171.2 190.712 1171.2 204.531Z" fill="#64892F"/>
<path d="M1177.32 177.312C1177.32 177.312 1196.73 162.866 1213.81 177.312C1208.75 159.725 1182.8 167.891 1177.32 177.312ZM1218.03 179.197C1243.77 190.922 1235.12 204.322 1245.66 223.166C1238.49 207.462 1256.21 179.197 1218.03 179.197Z" fill="#64892F"/>
<path d="M1207.91 177.312C1207.91 177.312 1213.81 168.519 1215.92 157.631C1216.13 156.166 1222.46 156.375 1222.25 157.841C1220.14 171.869 1225.84 179.616 1225.84 179.616C1225.84 179.616 1221.41 181.081 1215.92 181.081C1210.44 181.291 1207.91 177.312 1207.91 177.312Z" fill="#64892F"/>
<path d="M1219.09 158.887C1220.83 158.887 1222.25 158.325 1222.25 157.631C1222.25 156.937 1220.83 156.375 1219.09 156.375C1217.34 156.375 1215.92 156.937 1215.92 157.631C1215.92 158.325 1217.34 158.887 1219.09 158.887Z" fill="#8CC63E"/>
</g>
<g opacity="0.2">
<path d="M652.3 131.13C629 132.43 607.42 136.34 605.63 160.46C604.4 177.13 616.72 194.18 629.77 203.94C646.6 216.52 672.35 231.68 693.22 225.1C713.51 218.7 712.57 192.26 710.52 174.71C707.77 151.08 700.29 144.33 689.13 136.27C677.72 128.03 661.14 130.62 652.3 131.13Z" fill="#ED6C30"/>
<path d="M620.98 136.83C620.86 136.91 620.73 136.97 620.61 137.06C619.13 137.95 618.11 139.17 617.97 140.98C617.79 143.19 618.38 145.76 620.14 147.3C628.34 154.52 649.82 154.82 653.49 142.61C654.58 138.95 654.56 135.09 651.91 131.97C650.99 130.87 650.12 129.59 648.68 129.29C646.76 128.91 644.57 129.7 642.68 129.94C640.21 130.24 637.34 130.78 635.05 131.62C632.03 132.74 628.69 133.73 625.56 134.83C624.01 135.37 622.41 136.02 620.98 136.83ZM694.71 141.25C691.34 138.39 687.33 136.59 682.95 136.88C675.66 137.35 670.82 143.03 670.51 150.14C670.09 159.51 676.24 168.64 684.2 172.87C688.89 175.37 694.75 177.33 699.57 174.32C705 170.91 705.7 161.9 704.06 156.07C702.61 150.93 699.28 145.13 694.71 141.25ZM706 213.12C709.48 208.6 709.79 202.32 709.89 196.72C709.92 195.08 710.65 183.22 707.61 183.17C705.64 183.13 703.63 183.72 701.92 184.5C689.42 190.16 689.82 208.07 701.56 214.84C702.8 215.54 703.12 215.98 704.24 215.01C704.9 214.41 705.49 213.78 706 213.12Z" fill="white"/>
<path d="M683.29 229.87C661.9 229.87 639.46 214.95 627.99 206.06C611.64 193.37 602.55 176.96 602.4 159.82C604.17 133.39 635.1 127.45 653.38 126.25C654.23 126.19 655.58 126.15 657.27 126.15C661.02 126.15 670.7 126.37 679.51 128.43C686.51 130.06 694.11 134.2 698.43 138.73C705.32 145.97 711.16 159.21 713.3 172.45C715.8 187.96 714 204.62 711.04 212.43C707.93 220.7 702.13 226.23 694.26 228.42C690.82 229.38 687.13 229.87 683.29 229.87ZM657.27 132.3C655.76 132.3 654.55 132.34 653.79 132.39C637.52 133.46 610 138.48 608.55 160C608.65 170.53 612.75 186.44 631.76 201.18C642.61 209.59 663.73 223.7 683.29 223.7C686.57 223.7 689.71 223.29 692.61 222.48C698.59 220.81 702.86 216.7 705.28 210.24C707.57 204.19 709.68 188.76 707.22 173.41C705.3 161.5 699.97 149.25 693.97 142.95C690.47 139.28 683.95 135.76 678.11 134.4C669.69 132.45 660.04 132.3 657.27 132.3Z" fill="#ED6C30"/>
<path d="M615.3 166.81C609.66 170.9 618.28 185.68 622.17 189.91C628.2 196.5 638.46 204.86 649.86 210.96C659.16 215.93 665.49 218.19 671.36 219.75C680.54 222 686.8 221.4 688.48 218.16C689.21 216.77 688.41 211.6 682.99 204.81C677.29 197.65 666.77 188.8 661.73 185.03C645.28 172.6 631.73 167.75 628.85 166.79C621.99 164.5 617.41 164.99 615.3 166.81Z" fill="#855C52"/>
<path d="M638.18 182.71C635.7 184.77 632.36 187.93 630.19 189.29C625.08 192.49 619.62 194.83 614.07 196.49C604.86 199.24 597.73 204.86 593.86 214.55C590.23 223.89 591.12 231.86 594.52 238.1C598.87 246.33 605.91 250.48 612.78 252.4C621.59 254.86 635.87 256.26 648.94 238.86C654.81 231.18 661.25 214.39 663.06 204.58C663.26 203.5 663.59 201.95 663.81 200.37C663.89 199.8 663.86 197.29 662.82 195.59C661.88 194.05 658.23 190.42 653.67 187.35C649.84 184.77 644.66 182.36 641.99 181.8C639.43 181.26 638.62 182.33 638.18 182.71" fill="#FCD4B5"/>
</g>
<g opacity="0.2" clip-path="url(#clip5_57_1353)">
<path d="M1022.72 818.399C1022.22 817.893 1021.77 817.336 1021.37 816.752L1013.87 805.69C1013.29 804.804 1013.1 803.738 1013.35 802.724C1013.6 801.71 1014.27 800.829 1015.22 800.273C1016.16 799.717 1017.3 799.532 1018.39 799.757C1019.48 799.982 1020.43 800.599 1021.04 801.475L1028.53 812.537C1029.19 813.497 1030.24 814.145 1031.47 814.288L1032.38 814.405C1038.28 815.144 1044.16 813.419 1048.53 809.658C1052.9 805.897 1055.22 800.567 1054.88 795.029C1054.85 794.396 1054.64 793.781 1054.29 793.24C1053.94 792.698 1053.44 792.248 1052.85 791.93L1040.78 785.316C1040.3 785.053 1039.88 784.705 1039.55 784.291C1039.21 783.877 1038.97 783.405 1038.83 782.903C1038.69 782.4 1038.66 781.877 1038.73 781.363C1038.81 780.849 1039 780.354 1039.28 779.908C1039.56 779.46 1039.94 779.068 1040.38 778.755C1040.82 778.442 1041.33 778.214 1041.87 778.084C1042.41 777.954 1042.97 777.924 1043.52 777.997C1044.07 778.069 1044.6 778.243 1045.08 778.507L1057.15 785.121C1058.94 786.099 1060.45 787.478 1061.53 789.133C1062.61 790.787 1063.23 792.667 1063.34 794.601C1063.8 802.499 1060.49 810.099 1054.27 815.468C1051.21 818.113 1047.56 820.093 1043.58 821.266C1039.6 822.439 1035.39 822.775 1031.26 822.251L1030.34 822.134C1027.41 821.749 1024.72 820.429 1022.72 818.399ZM904.335 697.362C902.347 695.328 901.19 692.706 901.067 689.956L901.039 689.088C900.677 681.19 904.085 673.629 910.384 668.338C916.684 663.046 925.111 660.673 933.496 661.827C937.682 662.398 941.256 664.875 943.05 668.441L949.002 680.256C949.239 680.725 949.375 681.233 949.401 681.751C949.427 682.269 949.344 682.787 949.155 683.275C948.967 683.763 948.677 684.211 948.302 684.594C947.927 684.978 947.475 685.288 946.971 685.508C946.468 685.729 945.924 685.856 945.368 685.881C944.813 685.905 944.257 685.827 943.734 685.651C943.211 685.475 942.73 685.205 942.319 684.856C941.908 684.506 941.575 684.084 941.339 683.615L935.387 671.8C934.803 670.633 933.635 669.829 932.259 669.634C926.376 668.83 920.48 670.49 916.058 674.199C913.88 676.022 912.163 678.273 911.031 680.789C909.898 683.305 909.378 686.024 909.508 688.75L909.55 689.619C909.605 690.761 910.189 691.798 911.149 692.498L922.274 700.474C923.162 701.114 923.742 702.056 923.888 703.093C924.034 704.131 923.734 705.18 923.053 706.012C922.367 706.84 921.357 707.381 920.244 707.517C919.132 707.653 918.007 707.373 917.115 706.738L905.99 698.762C905.392 698.334 904.835 697.867 904.335 697.362Z" fill="#77A3AE"/>
<path d="M1035.96 799.393C1069.44 770.913 1071.82 722.517 1041.28 691.297C1010.75 660.077 958.852 657.854 925.374 686.334C891.897 714.813 889.514 763.209 920.052 794.429C950.59 825.65 1002.48 827.872 1035.96 799.393Z" fill="#77A3AE"/>
<path d="M1029.5 792.791C1059.07 767.638 1061.18 724.894 1034.21 697.319C1007.23 669.745 961.399 667.782 931.832 692.935C902.264 718.089 900.159 760.833 927.131 788.407C954.103 815.982 999.937 817.945 1029.5 792.791Z" fill="#F09300"/>
<path d="M1026.1 789.323C1016.77 797.26 1002.93 800.32 991.402 802.499C968.916 806.766 949.85 803.2 933.26 786.236C923.512 776.263 915.529 760.221 913.861 747.771C911.232 728.188 918.255 713.676 935.068 699.372C945.094 690.838 957.985 685.301 970.459 683.407C992.195 680.1 1014.21 686.429 1030.16 702.731C1040.35 713.157 1041.63 725.828 1042.99 738.875C1045 757.939 1042.44 775.433 1026.1 789.323Z" fill="#FFB74D"/>
<path d="M919.952 729.342C920.716 730.198 921.203 731.132 920.424 731.56C919.701 731.949 918.742 731.314 918.005 730.445C917.365 729.706 916.962 728.889 917.56 728.435C918.269 727.864 919.131 728.59 919.952 729.342ZM985.839 709.539C986.604 710.395 987.091 711.329 986.312 711.757C985.589 712.146 984.629 711.51 983.892 710.641C983.253 709.902 982.849 709.085 983.447 708.631C984.171 708.061 985.033 708.787 985.839 709.539ZM963.562 692.978C962.685 693.73 961.712 694.236 961.211 693.523C960.752 692.861 961.392 691.941 962.282 691.214C963.047 690.592 963.895 690.164 964.424 690.696C965.063 691.344 964.326 692.187 963.562 692.978ZM1026.52 778.753C1027.28 779.609 1027.77 780.543 1026.99 780.971C1026.26 781.36 1025.31 780.725 1024.57 779.856C1023.93 779.117 1023.53 778.299 1024.12 777.846C1024.83 777.275 1025.69 778.001 1026.52 778.753ZM1027.32 722.391C1027.89 721.419 1028.63 720.64 1029.35 721.159C1030.01 721.639 1029.73 722.715 1029.16 723.675C1028.66 724.505 1028 725.154 1027.32 724.816C1026.47 724.388 1026.88 723.377 1027.32 722.391Z" fill="#FADA80"/>
<path d="M1002.05 760.649C1002.82 761.505 1003.31 762.439 1002.53 762.867C1001.8 763.256 1000.84 762.62 1000.11 761.751C999.467 761.012 999.064 760.195 999.662 759.741C1000.39 759.171 1001.25 759.897 1002.05 760.649Z" fill="#F6ECBF"/>
<path d="M937.265 717.826C938.03 718.682 938.516 719.616 937.738 720.044C937.015 720.433 936.055 719.798 935.318 718.929C934.678 718.189 934.275 717.372 934.873 716.919C935.596 716.348 936.458 717.074 937.265 717.826ZM968.109 794.303C968.874 795.159 969.36 796.093 968.582 796.521C967.859 796.91 966.899 796.274 966.162 795.405C965.522 794.666 965.119 793.849 965.717 793.395C966.44 792.825 967.302 793.551 968.109 794.303Z" fill="#FADA80"/>
<path d="M975.159 687.972C976.286 689.71 975.062 691.085 974.158 692.317C973.004 693.912 971.544 693.069 970.529 692.083C969.513 691.085 968.679 689.671 970.32 688.608C971.725 687.726 973.421 687.246 975.159 687.972ZM1027.15 768.871C1028.28 770.609 1027.06 771.984 1026.15 773.216C1025 774.811 1023.54 773.968 1022.52 772.982C1021.51 771.984 1020.67 770.57 1022.32 769.507C1023.71 768.625 1025.4 768.145 1027.15 768.871ZM996.255 768.469C995.379 770.337 993.474 770.181 991.875 770.207C989.817 770.246 989.705 768.651 989.997 767.302C990.289 765.953 991.04 764.501 992.918 765.149C994.489 765.707 995.894 766.719 996.255 768.469ZM942.021 707.659C941.145 709.526 939.24 709.371 937.64 709.397C935.582 709.436 935.471 707.84 935.763 706.492C936.055 705.143 936.806 703.69 938.683 704.339C940.255 704.896 941.645 705.908 942.021 707.659ZM999.718 714.117C1000.84 715.855 999.62 717.23 998.717 718.462C997.562 720.057 996.102 719.214 995.087 718.228C994.072 717.23 993.238 715.816 994.878 714.753C996.269 713.871 997.966 713.391 999.718 714.117Z" fill="#689F38"/>
<path d="M1031.37 710.797C1032.49 712.535 1031.27 713.91 1030.37 715.142C1029.21 716.737 1027.75 715.894 1026.74 714.908C1025.72 713.91 1024.89 712.496 1026.53 711.433C1027.92 710.551 1029.62 710.071 1031.37 710.797ZM1037.92 755.682C1039.04 757.42 1037.82 758.794 1036.92 760.026C1035.76 761.622 1034.3 760.779 1033.29 759.793C1032.27 758.794 1031.44 757.381 1033.08 756.317C1034.47 755.436 1036.17 754.956 1037.92 755.682ZM958.263 791.424C959.39 793.162 958.166 794.536 957.262 795.768C956.108 797.363 954.648 796.521 953.632 795.535C952.617 794.536 951.783 793.123 953.424 792.059C954.828 791.164 956.525 790.685 958.263 791.424ZM931.438 762.088C932.564 763.826 931.341 765.201 930.437 766.433C929.283 768.028 927.822 767.185 926.807 766.2C925.792 765.201 924.958 763.787 926.599 762.724C927.989 761.842 929.686 761.362 931.438 762.088ZM930.089 717.696C931.216 719.434 929.992 720.809 929.088 722.041C927.934 723.636 926.473 722.793 925.458 721.808C924.443 720.809 923.609 719.395 925.25 718.332C926.654 717.45 928.351 716.97 930.089 717.696ZM989.177 688.141C990.303 689.878 989.079 691.253 988.176 692.485C987.021 694.08 985.561 693.237 984.546 692.252C983.531 691.253 982.696 689.84 984.337 688.776C985.742 687.881 987.438 687.401 989.177 688.141Z" fill="#E64A19"/>
<path d="M979.985 791.657C982.265 792.319 982.321 794.264 982.544 795.885C982.836 797.96 981 798.258 979.387 798.142C977.774 798.012 975.994 797.415 976.522 795.444C976.981 793.771 977.996 792.241 979.985 791.657ZM1036.74 726.878C1039.02 727.54 1039.07 729.485 1039.29 731.106C1039.59 733.181 1037.75 733.48 1036.14 733.363C1034.53 733.233 1032.75 732.637 1033.27 730.665C1033.73 728.992 1034.75 727.462 1036.74 726.878ZM938.655 776.821C940.213 776.886 940.741 777.599 940.338 779.013C939.977 780.284 939.949 781.996 937.863 781.399C936.333 780.971 934.331 780.18 934.873 778.287C935.276 776.899 937.237 777.016 938.655 776.821ZM959.946 736.203C960.502 737.565 960.015 738.291 958.458 738.511C957.067 738.706 955.371 739.354 955.12 737.331C954.94 735.853 954.926 733.83 956.998 733.544C958.541 733.337 959.195 735.062 959.946 736.203Z" fill="#689F38"/>
<path d="M968.387 762.75C964.521 761.492 964.271 758.782 966.023 756.097C967.747 753.464 970.473 753.101 973.254 755.137C973.212 755.98 974.687 756.914 973.073 757.666C970.167 757.225 967.636 757.16 969.055 761.103C969.068 761.738 968.846 762.283 968.387 762.75Z" fill="#F6ECBF"/>
<path d="M973.31 757.394C973.296 756.642 973.268 755.89 973.254 755.137C975.187 756.81 975.368 758.859 974.186 760.844C972.948 762.932 970.835 763.476 968.387 762.75C968.401 762.335 968.415 761.907 968.443 761.492C970.167 760.234 971.836 758.911 973.31 757.394Z" fill="#F6ECBF"/>
<path d="M973.31 757.394C973.866 761.012 971.933 762.05 968.443 761.479C966.635 759.819 965.55 758.055 967.984 756.149C970.278 754.372 971.836 755.825 973.31 757.394Z" fill="#FFA726"/>
<path d="M968.067 736.385C964.201 735.127 963.951 732.416 965.703 729.732C967.427 727.099 970.153 726.736 972.934 728.772C972.893 729.615 974.367 730.549 972.754 731.301C969.847 730.86 967.316 730.795 968.735 734.737C968.749 735.373 968.526 735.918 968.067 736.385Z" fill="#F6ECBF"/>
<path d="M972.99 731.029C972.976 730.276 972.948 729.524 972.934 728.772C974.867 730.445 975.048 732.494 973.866 734.478C972.628 736.566 970.515 737.111 968.067 736.385C968.081 735.97 968.095 735.542 968.123 735.127C969.847 733.869 971.516 732.546 972.99 731.029Z" fill="#F6ECBF"/>
<path d="M972.99 731.028C973.546 734.647 971.613 735.684 968.123 735.113C966.315 733.453 965.23 731.69 967.664 729.783C969.958 728.007 971.516 729.472 972.99 731.028Z" fill="#FFA726"/>
<path d="M996.255 749.755C992.389 748.497 992.139 745.787 993.891 743.102C995.615 740.47 998.341 740.107 1001.12 742.143C1001.08 742.986 1002.55 743.919 1000.94 744.672C998.035 744.231 995.504 744.166 996.923 748.108C996.937 748.744 996.714 749.288 996.255 749.755Z" fill="#F6ECBF"/>
<path d="M1001.18 744.399C1001.16 743.647 1001.14 742.895 1001.12 742.143C1003.06 743.816 1003.24 745.865 1002.05 747.849C1000.82 749.937 998.703 750.481 996.255 749.755C996.269 749.34 996.283 748.912 996.311 748.497C998.035 747.226 999.704 745.916 1001.18 744.399Z" fill="#F6ECBF"/>
<path d="M1001.18 744.399C1001.73 748.018 999.801 749.055 996.311 748.484C994.503 746.824 993.418 745.061 995.852 743.154C998.146 741.378 999.704 742.83 1001.18 744.399Z" fill="#FFA726"/>
<path d="M921.509 741.235C921.982 748.212 927.614 753.75 934.706 754.826C935.805 754.995 936.792 754.152 936.722 753.114L934.984 727.657C934.915 726.619 933.83 725.906 932.759 726.191C925.862 728.098 921.036 734.245 921.509 741.235Z" fill="#F7CB4D"/>
<path d="M931.967 729.576C930.563 730.18 929.29 731.02 928.212 732.053C927.781 732.468 927.795 733.103 928.268 733.479L932.704 737.124C933.176 737.513 933.9 737.176 933.858 736.592L933.441 730.419C933.385 729.732 932.634 729.291 931.967 729.576ZM934.817 750.546L934.4 744.425C934.391 744.297 934.341 744.174 934.257 744.071C934.173 743.969 934.058 743.893 933.927 743.851C933.796 743.809 933.655 743.805 933.522 743.838C933.388 743.871 933.268 743.94 933.176 744.036L929.297 748.147C928.893 748.575 928.963 749.211 929.45 749.561C930.632 750.43 931.994 751.117 933.469 751.545C934.164 751.752 934.859 751.221 934.817 750.546ZM925.806 735.295C925.222 736.449 924.847 737.694 924.694 739.004C924.624 739.601 925.153 740.12 925.806 740.081L931.466 739.743C932.092 739.704 932.342 738.991 931.883 738.602L927.461 734.971C927.337 734.871 927.19 734.799 927.032 734.76C926.873 734.722 926.708 734.718 926.547 734.75C926.387 734.781 926.237 734.847 926.108 734.941C925.98 735.036 925.876 735.157 925.806 735.295ZM924.93 742.895C925.255 744.229 925.824 745.501 926.613 746.656C926.988 747.2 927.823 747.252 928.268 746.759L932.356 742.428C932.773 741.987 932.412 741.313 931.786 741.352L925.876 741.702C925.236 741.741 924.791 742.311 924.93 742.895Z" fill="#FEF6E0"/>
<path d="M1009.16 697.686C1002.26 694.936 994.433 697.128 990.206 702.549C989.552 703.392 989.914 704.585 990.943 705L1016.09 715.025C1017.11 715.44 1018.28 714.856 1018.49 713.832C1019.77 707.231 1016.06 700.435 1009.16 697.686Z" fill="#F7CB4D"/>
<path d="M1015.6 711.653C1015.65 710.212 1015.42 708.775 1014.92 707.412C1014.87 707.284 1014.8 707.166 1014.71 707.065C1014.61 706.964 1014.49 706.883 1014.36 706.827C1014.23 706.771 1014.09 706.741 1013.95 706.739C1013.8 706.737 1013.66 706.763 1013.53 706.816L1008.05 708.865C1007.48 709.085 1007.46 709.837 1008.03 710.071L1014.14 712.509C1014.81 712.768 1015.57 712.327 1015.6 711.653ZM994.239 704.559L1000.3 706.984C1000.43 707.035 1000.57 707.05 1000.71 707.026C1000.84 707.002 1000.97 706.941 1001.06 706.851C1001.16 706.76 1001.23 706.644 1001.26 706.518C1001.29 706.392 1001.27 706.261 1001.22 706.141L999.036 701.058C998.985 700.932 998.907 700.819 998.806 700.724C998.705 700.629 998.584 700.554 998.45 700.505C998.317 700.457 998.174 700.434 998.03 700.44C997.887 700.446 997.747 700.479 997.618 700.539C996.241 701.135 994.976 701.965 993.905 702.99C993.787 703.102 993.7 703.24 993.651 703.391C993.603 703.542 993.595 703.702 993.628 703.857C993.661 704.011 993.733 704.156 993.84 704.278C993.946 704.401 994.083 704.497 994.239 704.559ZM1012.9 703.95C1012.04 702.935 1011.01 702.055 1009.86 701.343C1009.73 701.266 1009.58 701.217 1009.43 701.198C1009.28 701.179 1009.13 701.19 1008.98 701.232C1008.84 701.274 1008.7 701.345 1008.59 701.441C1008.47 701.536 1008.39 701.653 1008.33 701.784L1006.1 706.647C1006.05 706.766 1006.03 706.896 1006.06 707.023C1006.08 707.15 1006.15 707.267 1006.24 707.359C1006.34 707.451 1006.47 707.513 1006.6 707.539C1006.74 707.565 1006.88 707.552 1007 707.503L1012.47 705.454C1012.62 705.398 1012.75 705.309 1012.86 705.196C1012.97 705.083 1013.05 704.948 1013.09 704.802C1013.13 704.656 1013.14 704.503 1013.1 704.355C1013.07 704.207 1013 704.068 1012.9 703.95ZM1006.02 699.787C1004.57 699.449 1003.1 699.359 1001.66 699.501C1001.5 699.518 1001.35 699.569 1001.21 699.651C1001.08 699.733 1000.97 699.843 1000.88 699.972C1000.8 700.102 1000.75 700.247 1000.74 700.397C1000.73 700.547 1000.76 700.698 1000.82 700.837L1003.12 706.193C1003.36 706.725 1004.17 706.738 1004.42 706.206L1006.74 701.122C1006.8 700.991 1006.83 700.85 1006.82 700.708C1006.82 700.566 1006.78 700.426 1006.71 700.299C1006.64 700.173 1006.54 700.061 1006.42 699.973C1006.3 699.884 1006.17 699.821 1006.02 699.787Z" fill="#FEF6E0"/>
<path d="M1005.47 792.008C1013.21 788.649 1017.17 780.803 1015.45 773.345C1015.18 772.191 1013.82 771.569 1012.66 772.062L984.477 784.317C984.206 784.434 983.967 784.607 983.778 784.822C983.588 785.037 983.453 785.289 983.383 785.559C983.312 785.829 983.307 786.111 983.369 786.383C983.431 786.655 983.557 786.911 983.74 787.131C988.76 793.149 997.743 795.366 1005.47 792.008Z" fill="#F7CB4D"/>
<path d="M987.911 786.496C989.191 787.65 990.665 788.545 992.264 789.18C992.904 789.44 993.627 789.154 993.863 788.545L996.172 782.657C996.408 782.035 995.727 781.451 995.087 781.736L988.245 784.706C987.508 785.03 987.314 785.964 987.911 786.496ZM1010.56 775.018L1003.78 777.962C1003.14 778.235 1003.18 779.104 1003.85 779.324L1010.12 781.451C1010.77 781.671 1011.47 781.347 1011.68 780.725C1012.18 779.194 1012.39 777.56 1012.26 775.926C1012.24 775.748 1012.18 775.575 1012.08 775.424C1011.98 775.273 1011.83 775.148 1011.67 775.058C1011.5 774.969 1011.31 774.919 1011.12 774.912C1010.93 774.905 1010.74 774.942 1010.56 775.018ZM996.951 790.218C998.494 790.309 1000.08 790.179 1001.62 789.79C1002.33 789.608 1002.71 788.869 1002.39 788.247L999.662 782.8C999.37 782.203 998.439 782.242 998.202 782.865L995.908 788.739C995.847 788.901 995.828 789.073 995.85 789.243C995.873 789.413 995.937 789.575 996.038 789.718C996.139 789.861 996.274 789.981 996.432 790.067C996.59 790.154 996.768 790.205 996.951 790.218ZM1005.95 787.948C1007.35 787.066 1008.55 785.964 1009.52 784.732C1009.63 784.593 1009.7 784.432 1009.73 784.262C1009.76 784.093 1009.75 783.919 1009.69 783.756C1009.64 783.592 1009.54 783.442 1009.41 783.319C1009.28 783.196 1009.13 783.103 1008.95 783.046L1002.33 780.802C1001.66 780.582 1001.04 781.217 1001.34 781.814L1004.2 787.507C1004.52 788.117 1005.35 788.324 1005.95 787.948Z" fill="#FEF6E0"/>
<path d="M949.085 752.725C950.643 749.288 954.3 749.237 957.359 748.471C960.21 747.758 963.228 747.667 966.176 747.304C967.914 748.912 969.36 749.081 970.237 746.578C972.754 745.255 974.478 749.69 977.218 747.136C975.771 749.561 973.115 750.196 970.988 752.116C972.03 752.401 972.907 752.634 974.019 752.946C969.958 757.005 964.424 758.678 959.765 761.583C959.153 762.348 958.305 762.763 957.318 762.97C951.853 762.426 948.167 757.848 949.085 752.725ZM942.076 772.204C941.242 769.52 940.422 766.835 942.174 763.191C946.012 768.755 954.842 766.407 957.804 773.151C954.995 774.227 954.495 766.835 951.268 772.204C948.209 774.305 945.15 774.383 942.076 772.204Z" fill="#FF5722"/>
<path d="M955.955 766.368C950.684 767.626 946.93 764.838 943.245 762.102C941.478 760.779 942.688 759.067 943.467 757.705C944.274 756.305 945.4 755.086 946.387 753.776C947.069 753.426 947.681 753.646 947.861 754.243C949.294 758.756 952.715 761.881 956.261 764.942L956.15 765.11C956.567 765.603 956.497 766.018 955.955 766.368Z" fill="#FF5722"/>
<path d="M959.362 783.007C963.895 780.608 968.415 778.17 972.99 775.836C973.769 775.433 974.937 775.317 975.549 776.225C976.592 777.781 975.521 778.987 974.561 780.154C971.127 784.784 963.506 786.211 959.362 783.007Z" fill="#DC2E07"/>
<path d="M952.284 774.357C953.299 777.262 951.63 779.895 949.21 780.245C945.331 780.789 944.343 777.106 942.994 774.435C946.081 772.775 949.183 772.827 952.284 774.357ZM959.362 783.007C965.063 785.043 969.903 783.02 974.561 780.167C976.578 782.164 975.938 783.435 973.366 784.33C969.082 785.821 964.646 785.782 960.196 785.692C956.998 785.627 959.863 783.85 959.362 783.007Z" fill="#FF5722"/>
<path d="M956.275 764.942C950.184 763.372 948.626 758.302 946.401 753.763C946.985 752.725 948.098 752.855 949.085 752.712C950.615 758.898 953.382 761.92 958.013 762.439C958.972 762.205 959.251 762.542 958.917 763.385C957.693 763.398 956.734 763.8 956.275 764.942Z" fill="#E64A19"/>
<path d="M958.388 782.333C957.999 783.785 957.332 785.186 955.593 784.784C953.758 784.356 951.004 784.161 950.921 781.996C950.865 780.673 953.034 779.22 954.787 779.376C956.4 779.519 958.041 780.491 958.388 782.333Z" fill="#FF5722"/>
<path d="M952.284 774.357L943.008 774.435C942.702 773.696 942.396 772.956 942.09 772.204H951.296C951.616 772.93 951.95 773.644 952.284 774.357Z" fill="#E64A19"/>
<path d="M970.237 746.565C971.21 748.29 971.099 749.95 968.902 750.417C966.315 750.961 966.384 748.886 966.176 747.291C967.316 745.994 968.707 745.968 970.237 746.565Z" fill="#4F2F27"/>
<path d="M958.917 763.398C958.611 763.087 958.305 762.776 958.013 762.452C958.388 761.777 959.056 761.622 959.793 761.57C961.629 763.554 964.869 764.306 966.092 768.249C963.089 766.394 961.559 764.06 958.917 763.398ZM955.955 766.368L956.163 765.11C958.959 766.187 961.197 767.717 960.947 771.335L955.955 766.368ZM981.737 715.077C984.337 717.878 982.78 720.965 982.168 723.857C981.598 726.541 980.36 729.109 979.401 731.729C977.092 732.468 976.286 733.596 978.316 735.438C978.469 738.109 973.463 737.591 974.7 741.014C973.018 738.745 973.574 736.242 972.67 733.622C971.933 734.374 971.321 734.997 970.542 735.788C968.443 730.613 969.277 725.257 968.54 720.096C968.081 719.24 968.053 718.358 968.29 717.45C971.21 713.106 977.231 712.042 981.737 715.077ZM966.134 700.643C969.082 701.135 972.017 701.628 974.728 704.702C967.706 705.454 966.065 713.845 958.291 713.339C958.5 710.525 965.8 713.365 962.074 708.307C961.434 704.831 962.713 702.251 966.134 700.643Z" fill="#FF5722"/>
<path d="M965.62 714.779C966.732 709.838 971.071 707.918 975.312 706.077C977.357 705.182 978.469 706.946 979.429 708.203C980.416 709.487 981.097 710.966 981.904 712.366C981.946 713.093 981.459 713.495 980.805 713.391C975.841 712.587 971.335 714.065 966.843 715.673L966.732 715.505C966.092 715.635 965.717 715.388 965.62 714.779Z" fill="#FF5722"/>
<path d="M948.167 710.292C948.473 715.129 948.807 719.966 949.03 724.817C949.071 725.647 948.668 726.671 947.528 726.775C945.567 726.956 944.899 725.543 944.19 724.207C941.284 719.331 943.272 712.341 948.167 710.292Z" fill="#DC2E07"/>
<path d="M959.584 708.203C956.344 707.762 954.564 705.208 955.301 703.055C956.497 699.579 960.447 700.383 963.603 700.435C963.84 703.729 962.421 706.284 959.584 708.203ZM948.167 710.291C943.703 714.156 943.509 719.071 944.19 724.207C941.381 725.011 940.449 723.922 940.728 721.367C941.186 717.152 943.189 713.456 945.233 709.786C946.707 707.166 947.138 710.343 948.167 710.291Z" fill="#FF5722"/>
<path d="M966.843 715.686C971.029 711.303 976.578 712.237 981.918 712.379C982.655 713.326 982.043 714.195 981.737 715.077C975.132 713.624 971.015 714.597 968.47 718.228C968.276 719.136 967.831 719.214 967.163 718.565C967.706 717.541 967.747 716.568 966.843 715.686Z" fill="#E64A19"/>
<path d="M949.252 709.773C948.028 708.813 946.985 707.633 948.14 706.362C949.363 705.013 950.754 702.821 952.868 703.703C954.161 704.248 954.606 706.686 953.674 708.074C952.812 709.358 951.171 710.304 949.252 709.773Z" fill="#FF5722"/>
<path d="M959.584 708.203C960.919 705.61 962.268 703.016 963.603 700.435C964.452 700.5 965.3 700.578 966.148 700.643C964.799 703.197 963.45 705.752 962.087 708.307C961.253 708.281 960.419 708.242 959.584 708.203Z" fill="#E64A19"/>
<path d="M978.302 735.425C976.216 735.477 974.673 734.647 975.201 732.611C975.813 730.211 977.774 731.184 979.401 731.716C980.152 733.233 979.554 734.413 978.302 735.425Z" fill="#4F2F27"/>
<path d="M967.163 718.565C967.594 718.449 968.039 718.332 968.471 718.228C968.943 718.838 968.804 719.46 968.526 720.096C965.814 720.744 963.659 723.13 959.348 722.404C962.463 720.731 965.356 720.472 967.163 718.565ZM965.62 714.779C965.995 715.025 966.357 715.271 966.732 715.505C964.466 717.372 962.018 718.552 958.653 716.75C960.975 716.101 963.297 715.44 965.62 714.779ZM1003.26 763.074C999.092 763.852 996.853 760.87 994.294 758.82C991.916 756.901 990.025 754.489 987.911 752.284C988.384 749.898 987.689 748.614 984.796 749.379C982.043 748.108 985.214 744.036 981.139 743.31C984.282 743.05 986.479 744.853 989.566 745.45C989.205 744.425 988.913 743.556 988.523 742.467C994.781 743.375 999.676 746.915 1005.21 749.003C1006.31 749.055 1007.2 749.509 1007.99 750.183C1010.77 754.982 1008.65 760.766 1003.26 763.074ZM1025.85 757.173C1023.82 759.469 1021.76 761.751 1017.27 762.478C1020.22 756.006 1012.72 750.144 1017.32 743.686C1020.02 745.346 1013.35 750.183 1020.34 749.613C1024.15 750.884 1026.06 753.348 1025.85 757.173Z" fill="#FF5722"/>
<path d="M1012.04 749.263C1016.38 752.829 1015.99 757.588 1015.6 762.244C1015.4 764.488 1013.07 764.514 1011.3 764.682C1009.51 764.864 1007.67 764.669 1005.85 764.63C1005.11 764.28 1004.96 763.645 1005.42 763.139C1008.83 759.261 1009.73 754.58 1010.5 749.846L1010.72 749.833C1010.95 749.224 1011.39 749.029 1012.04 749.263Z" fill="#FF5722"/>
<path d="M1025.71 736.514C1020.73 734.219 1015.72 731.975 1010.79 729.615C1009.94 729.213 1009.13 728.331 1009.63 727.281C1010.48 725.491 1012.25 725.646 1013.94 725.75C1020.34 725.789 1026.25 731.197 1025.71 736.514Z" fill="#DC2E07"/>
<path d="M1021.77 747.499C1023.91 744.931 1027.41 744.723 1029.16 746.5C1031.99 749.366 1029.1 752.375 1027.39 755.072C1023.98 753.542 1022.19 750.974 1021.77 747.499ZM1025.71 736.514C1024.22 730.613 1019.42 727.851 1013.94 725.737C1014.63 722.884 1016.2 722.651 1018.59 724.233C1022.55 726.852 1025.17 730.523 1027.75 734.232C1029.59 736.89 1026.2 735.606 1025.71 736.514Z" fill="#FF5722"/>
<path d="M1010.5 749.859C1012.65 755.799 1008.8 760.104 1005.85 764.656C1004.52 764.799 1003.97 763.813 1003.25 763.074C1008.19 758.12 1009.38 754.035 1007.1 749.924C1006.31 749.275 1006.46 748.847 1007.45 748.614C1008.19 749.626 1009.15 750.17 1010.5 749.859Z" fill="#E64A19"/>
<path d="M1025.65 737.733C1027.25 737.176 1028.98 736.903 1029.63 738.563C1030.33 740.327 1031.79 742.7 1029.78 744.062C1028.56 744.892 1025.9 743.984 1025 742.454C1024.19 741.04 1024.12 739.108 1025.65 737.733Z" fill="#FF5722"/>
<path d="M1021.77 747.499C1023.65 750.028 1025.53 752.557 1027.39 755.073C1026.88 755.773 1026.36 756.46 1025.83 757.161C1024 754.645 1022.16 752.129 1020.33 749.6C1020.83 748.912 1021.3 748.199 1021.77 747.499Z" fill="#E64A19"/>
<path d="M984.796 749.379C985.839 747.551 987.48 746.643 989.232 748.173C991.291 749.963 989.288 751.156 987.911 752.284C986.006 752.129 985.144 750.987 984.796 749.379Z" fill="#4F2F27"/>
<path d="M1007.45 748.614C1007.34 749.055 1007.21 749.483 1007.1 749.924C1006.24 750.015 1005.7 749.561 1005.21 748.99C1005.99 746.293 1004.75 743.18 1007.76 739.821C1007.78 743.401 1006.5 746.046 1007.45 748.614ZM1012.04 749.263C1011.61 749.457 1011.16 749.652 1010.73 749.833C1010.08 746.889 1010.18 744.14 1013.75 742.182C1013.17 744.542 1012.61 746.902 1012.04 749.263Z" fill="#FF5722"/>
</g>
<g opacity="0.3">
<path d="M234.438 743.25V745.125L171.375 714.125C170.869 713.878 170.313 713.75 169.75 713.75C169.187 713.75 168.631 713.878 168.125 714.125L73.5 760.187V758.312H66.5V765.937C66.5 767.25 67.1875 768.562 68.5625 769.25L132 800.437C135.875 802.375 140.5 802.375 144.375 800.437L239.375 754.187C240.75 753.5 241.437 752.187 241.437 750.875V743.25H234.438Z" fill="url(#paint8_linear_57_1353)"/>
<path d="M168.125 706.687L68.5624 755.187C67.9423 755.491 67.4198 755.962 67.0544 756.548C66.6889 757.133 66.4951 757.81 66.4951 758.5C66.4951 759.19 66.6889 759.867 67.0544 760.452C67.4198 761.038 67.9423 761.509 68.5624 761.812L132 793C135.875 794.937 140.5 794.937 144.375 793L239.375 746.75C239.995 746.447 240.518 745.975 240.883 745.39C241.248 744.804 241.442 744.128 241.442 743.437C241.442 742.747 241.248 742.071 240.883 741.485C240.518 740.9 239.995 740.428 239.375 740.125L171.375 706.687C170.869 706.441 170.313 706.312 169.75 706.312C169.187 706.312 168.631 706.441 168.125 706.687Z" fill="url(#paint9_linear_57_1353)"/>
<path d="M168.125 706.687L68.5624 755.187C67.9423 755.491 67.4198 755.962 67.0544 756.548C66.6889 757.133 66.4951 757.81 66.4951 758.5C66.4951 759.19 66.6889 759.867 67.0544 760.452C67.4198 761.038 67.9423 761.509 68.5624 761.812L132 793C135.875 794.937 140.5 794.937 144.375 793L239.375 746.75C239.995 746.447 240.518 745.975 240.883 745.39C241.248 744.804 241.442 744.128 241.442 743.437C241.442 742.747 241.248 742.071 240.883 741.485C240.518 740.9 239.995 740.428 239.375 740.125L171.375 706.687C170.869 706.441 170.313 706.312 169.75 706.312C169.187 706.312 168.631 706.441 168.125 706.687Z" fill="url(#paint10_radial_57_1353)"/>
<g filter="url(#filter2_f_57_1353)">
<path d="M107.556 745.512C107.556 747.012 108.431 748.387 109.744 749.075L155.806 771.7C157.119 772.325 157.419 772.325 158.794 771.7L210.794 746.762C212.169 746.075 212.981 744.7 212.981 743.2L107.556 745.512Z" fill="#BF9A82"/>
</g>
<g filter="url(#filter3_f_57_1353)">
<path fill-rule="evenodd" clip-rule="evenodd" d="M240.031 746.544C239.187 747.394 238.031 748.106 237.006 748.687C235.95 749.287 213.506 760.35 191.112 771.356C168.719 782.356 146.244 793.362 145.131 793.844C143.931 794.356 141.569 794.931 139.006 795.094C136.462 795.262 135.056 794.775 132.856 793.537C132.856 793.537 136.206 793.719 138.906 793.537C141.344 793.381 143.519 792.831 144.512 792.412C145.581 791.95 167.987 780.975 190.425 769.956C212.869 758.925 235.237 747.894 236.231 747.331C237.205 746.821 238.108 746.187 238.919 745.444L241.187 743.137C241.519 744.531 240.881 745.675 240.031 746.544Z" fill="#EDE7F1"/>
</g>
<g filter="url(#filter4_f_57_1353)">
<path d="M111.262 743.25C111.262 744.75 112.137 746.125 113.45 746.813L159.512 769.437C160.825 770.062 162.387 770.062 163.762 769.437L215.762 744.5C217.137 743.812 217.95 742.437 217.95 740.938L111.262 743.25Z" fill="#A67858"/>
</g>
<path d="M172.187 690.812C170 689.75 167.5 689.75 165.375 690.812L115.125 714.875C113.5 715.687 112.438 717.375 112.438 719.187V742.562C112.438 744.062 113.312 745.437 114.625 746.125L160.687 768.75C162 769.375 163.562 769.375 164.937 768.75L216.937 743.812C218.312 743.125 219.125 741.75 219.125 740.25V716.875C219.125 715.062 218.062 713.375 216.437 712.562L172.187 690.812Z" fill="url(#paint11_linear_57_1353)"/>
<path d="M172.187 690.812C170 689.75 167.5 689.75 165.375 690.812L115.125 714.875C113.5 715.687 112.438 717.375 112.438 719.187V742.562C112.438 744.062 113.312 745.437 114.625 746.125L160.687 768.75C162 769.375 163.562 769.375 164.937 768.75L216.937 743.812C218.312 743.125 219.125 741.75 219.125 740.25V716.875C219.125 715.062 218.062 713.375 216.437 712.562L172.187 690.812Z" fill="url(#paint12_linear_57_1353)"/>
<path d="M112.438 742.5V718.937C112.438 717.687 113.75 716.812 114.938 717.375L160.875 740C162.062 740.562 162.812 741.812 162.812 743.125V766.437C162.812 767.937 161.25 768.937 159.875 768.25L114.688 746.062C114.014 745.743 113.444 745.238 113.046 744.608C112.648 743.977 112.437 743.246 112.438 742.5Z" fill="url(#paint13_linear_57_1353)"/>
<g filter="url(#filter5_f_57_1353)">
<path d="M114.25 742.15V720.075C114.25 718.825 115.506 717.95 116.694 718.512L160.875 740C162.063 740.562 162.812 741.812 162.812 743.125V766.019C162.812 767.519 161.25 768.519 159.875 767.831L116.444 745.706C115.777 745.383 115.217 744.876 114.829 744.245C114.442 743.613 114.243 742.884 114.256 742.144" fill="url(#paint14_radial_57_1353)"/>
</g>
<g filter="url(#filter6_f_57_1353)">
<path d="M89.7063 754.788C89.7063 756.288 90.5813 757.663 91.8938 758.35L137.956 780.975C139.269 781.6 140.831 781.6 142.206 780.975L150.081 777.163C151.456 776.475 152.269 775.1 152.269 773.6C152.269 773.6 95.4063 745.763 89.7063 754.788Z" fill="#9E7968"/>
</g>
<path d="M106.5 723.187C104.312 722.125 101.812 722.125 99.6875 723.187L93.5625 726.125C91.9375 726.938 90.875 728.562 90.875 730.437V753.812C90.875 755.312 91.75 756.688 93.0625 757.375L139.125 780C140.437 780.625 142 780.625 143.375 780L151.25 776.188C152.625 775.5 153.438 774.125 153.438 772.625V749.25C153.438 747.438 152.375 745.75 150.75 744.938L106.5 723.187Z" fill="url(#paint15_linear_57_1353)"/>
<path d="M106.5 723.187C104.312 722.125 101.812 722.125 99.6875 723.187L93.5625 726.125C91.9375 726.938 90.875 728.562 90.875 730.437V753.812C90.875 755.312 91.75 756.688 93.0625 757.375L139.125 780C140.437 780.625 142 780.625 143.375 780L151.25 776.188C152.625 775.5 153.438 774.125 153.438 772.625V749.25C153.438 747.438 152.375 745.75 150.75 744.938L106.5 723.187Z" fill="url(#paint16_linear_57_1353)"/>
<path d="M106.5 723.187C104.312 722.125 101.812 722.125 99.6875 723.187L93.5625 726.125C91.9375 726.938 90.875 728.562 90.875 730.437V753.812C90.875 755.312 91.75 756.688 93.0625 757.375L139.125 780C140.437 780.625 142 780.625 143.375 780L151.25 776.188C152.625 775.5 153.438 774.125 153.438 772.625V749.25C153.438 747.438 152.375 745.75 150.75 744.938L106.5 723.187Z" fill="url(#paint17_radial_57_1353)"/>
<g filter="url(#filter7_f_57_1353)">
<path d="M93.3499 753.019V730.812C93.3499 729.562 94.6624 728.687 95.8499 729.25L139.375 751.25C140.562 751.812 141.312 753.062 141.312 754.375V776.325C141.312 777.825 139.75 778.825 138.375 778.137L95.5999 756.512C94.9285 756.207 94.3593 755.714 93.9603 755.093C93.5614 754.473 93.3494 753.757 93.3499 753.019Z" fill="url(#paint18_radial_57_1353)"/>
</g>
<g filter="url(#filter8_f_57_1353)">
<path d="M77.875 765.388C81.2992 765.388 84.075 762.612 84.075 759.188C84.075 755.763 81.2992 752.988 77.875 752.988C74.4509 752.988 71.675 755.763 71.675 759.188C71.675 762.612 74.4509 765.388 77.875 765.388Z" fill="#B0978A"/>
</g>
<path d="M79.0999 765.394C82.7139 765.394 85.6437 762.464 85.6437 758.85C85.6437 755.236 82.7139 752.306 79.0999 752.306C75.4859 752.306 72.5562 755.236 72.5562 758.85C72.5562 762.464 75.4859 765.394 79.0999 765.394Z" fill="url(#paint19_radial_57_1353)"/>
<g filter="url(#filter9_f_57_1353)">
<path d="M87.8499 765.387C89.5206 765.387 90.875 764.033 90.875 762.362C90.875 760.692 89.5206 759.337 87.8499 759.337C86.1793 759.337 84.825 760.692 84.825 762.362C84.825 764.033 86.1793 765.387 87.8499 765.387Z" fill="#B0978A"/>
</g>
<path d="M88.4749 765.094C90.1456 765.094 91.5 763.739 91.5 762.069C91.5 760.398 90.1456 759.044 88.4749 759.044C86.8043 759.044 85.45 760.398 85.45 762.069C85.45 763.739 86.8043 765.094 88.4749 765.094Z" fill="url(#paint20_radial_57_1353)"/>
</g>
<g opacity="0.2">
<path d="M478.3 735.13C455 736.43 433.42 740.34 431.63 764.46C430.4 781.13 442.72 798.18 455.77 807.94C472.6 820.52 498.35 835.68 519.22 829.1C539.51 822.7 538.57 796.26 536.52 778.71C533.77 755.08 526.29 748.33 515.13 740.27C503.72 732.03 487.14 734.62 478.3 735.13Z" fill="#ED6C30"/>
<path d="M446.98 740.83C446.86 740.91 446.73 740.97 446.61 741.06C445.13 741.95 444.11 743.17 443.97 744.98C443.79 747.19 444.38 749.76 446.14 751.3C454.34 758.52 475.82 758.82 479.49 746.61C480.58 742.95 480.56 739.09 477.91 735.97C476.99 734.87 476.12 733.59 474.68 733.29C472.76 732.91 470.57 733.7 468.68 733.94C466.21 734.24 463.34 734.78 461.05 735.62C458.03 736.74 454.69 737.73 451.56 738.83C450.01 739.37 448.41 740.02 446.98 740.83ZM520.71 745.25C517.34 742.39 513.33 740.59 508.95 740.88C501.66 741.35 496.82 747.03 496.51 754.14C496.09 763.51 502.24 772.64 510.2 776.87C514.89 779.37 520.75 781.33 525.57 778.32C531 774.91 531.7 765.9 530.06 760.07C528.61 754.93 525.28 749.13 520.71 745.25ZM532 817.12C535.48 812.6 535.79 806.32 535.89 800.72C535.92 799.08 536.65 787.22 533.61 787.17C531.64 787.13 529.63 787.72 527.92 788.5C515.42 794.16 515.82 812.07 527.56 818.84C528.8 819.54 529.12 819.98 530.24 819.01C530.9 818.41 531.49 817.78 532 817.12Z" fill="white"/>
<path d="M509.29 833.87C487.9 833.87 465.46 818.95 453.99 810.06C437.64 797.37 428.55 780.96 428.4 763.82C430.17 737.39 461.1 731.45 479.38 730.25C480.23 730.19 481.58 730.15 483.27 730.15C487.02 730.15 496.7 730.37 505.51 732.43C512.51 734.06 520.11 738.2 524.43 742.73C531.32 749.97 537.16 763.21 539.3 776.45C541.8 791.96 540 808.62 537.04 816.43C533.93 824.7 528.13 830.23 520.26 832.42C516.82 833.38 513.13 833.87 509.29 833.87ZM483.27 736.3C481.76 736.3 480.55 736.34 479.79 736.39C463.52 737.46 436 742.48 434.55 764C434.65 774.53 438.75 790.44 457.76 805.18C468.61 813.59 489.73 827.7 509.29 827.7C512.57 827.7 515.71 827.29 518.61 826.48C524.59 824.81 528.86 820.7 531.28 814.24C533.57 808.19 535.68 792.76 533.22 777.41C531.3 765.5 525.97 753.25 519.97 746.95C516.47 743.28 509.95 739.76 504.11 738.4C495.69 736.45 486.04 736.3 483.27 736.3Z" fill="#ED6C30"/>
<path d="M441.3 770.81C435.66 774.9 444.28 789.68 448.17 793.91C454.2 800.5 464.46 808.86 475.86 814.96C485.16 819.93 491.49 822.19 497.36 823.75C506.54 826 512.8 825.4 514.48 822.16C515.21 820.77 514.41 815.6 508.99 808.81C503.29 801.65 492.77 792.8 487.73 789.03C471.28 776.6 457.73 771.75 454.85 770.79C447.99 768.5 443.41 768.99 441.3 770.81Z" fill="#855C52"/>
<path d="M464.18 786.71C461.7 788.77 458.36 791.93 456.19 793.29C451.08 796.49 445.62 798.83 440.07 800.49C430.86 803.24 423.73 808.86 419.86 818.55C416.23 827.89 417.12 835.86 420.52 842.1C424.87 850.33 431.91 854.48 438.78 856.4C447.59 858.86 461.87 860.26 474.94 842.86C480.81 835.18 487.25 818.39 489.06 808.58C489.26 807.5 489.59 805.95 489.81 804.37C489.89 803.8 489.86 801.29 488.82 799.59C487.88 798.05 484.23 794.42 479.67 791.35C475.84 788.77 470.66 786.36 467.99 785.8C465.43 785.26 464.62 786.33 464.18 786.71" fill="#FCD4B5"/>
</g>
</g>
</g>
<defs>
<filter id="filter0_f_57_1353" x="39.748" y="155.552" width="46.5925" height="47.6965" filterUnits="userSpaceOnUse" color-interpolation-filters="sRGB">
<feFlood flood-opacity="0" result="BackgroundImageFix"/>
<feBlend mode="normal" in="SourceGraphic" in2="BackgroundImageFix" result="shape"/>
<feGaussianBlur stdDeviation="0.25" result="effect1_foregroundBlur_57_1353"/>
</filter>
<filter id="filter1_f_57_1353" x="51.6699" y="159.951" width="34.9207" height="43.5474" filterUnits="userSpaceOnUse" color-interpolation-filters="sRGB">
<feFlood flood-opacity="0" result="BackgroundImageFix"/>
<feBlend mode="normal" in="SourceGraphic" in2="BackgroundImageFix" result="shape"/>
<feGaussianBlur stdDeviation="0.375" result="effect1_foregroundBlur_57_1353"/>
</filter>
<filter id="filter2_f_57_1353" x="106.556" y="742.2" width="107.425" height="30.9688" filterUnits="userSpaceOnUse" color-interpolation-filters="sRGB">
<feFlood flood-opacity="0" result="BackgroundImageFix"/>
<feBlend mode="normal" in="SourceGraphic" in2="BackgroundImageFix" result="shape"/>
<feGaussianBlur stdDeviation="0.5" result="effect1_foregroundBlur_57_1353"/>
</filter>
<filter id="filter3_f_57_1353" x="132.756" y="743.037" width="108.62" height="52.1885" filterUnits="userSpaceOnUse" color-interpolation-filters="sRGB">
<feFlood flood-opacity="0" result="BackgroundImageFix"/>
<feBlend mode="normal" in="SourceGraphic" in2="BackgroundImageFix" result="shape"/>
<feGaussianBlur stdDeviation="0.05" result="effect1_foregroundBlur_57_1353"/>
</filter>
<filter id="filter4_f_57_1353" x="111.012" y="740.688" width="107.188" height="29.4688" filterUnits="userSpaceOnUse" color-interpolation-filters="sRGB">
<feFlood flood-opacity="0" result="BackgroundImageFix"/>
<feBlend mode="normal" in="SourceGraphic" in2="BackgroundImageFix" result="shape"/>
<feGaussianBlur stdDeviation="0.125" result="effect1_foregroundBlur_57_1353"/>
</filter>
<filter id="filter5_f_57_1353" x="113.25" y="717.338" width="50.5625" height="51.7141" filterUnits="userSpaceOnUse" color-interpolation-filters="sRGB">
<feFlood flood-opacity="0" result="BackgroundImageFix"/>
<feBlend mode="normal" in="SourceGraphic" in2="BackgroundImageFix" result="shape"/>
<feGaussianBlur stdDeviation="0.5" result="effect1_foregroundBlur_57_1353"/>
</filter>
<filter id="filter6_f_57_1353" x="89.4563" y="752.737" width="63.0625" height="28.9568" filterUnits="userSpaceOnUse" color-interpolation-filters="sRGB">
<feFlood flood-opacity="0" result="BackgroundImageFix"/>
<feBlend mode="normal" in="SourceGraphic" in2="BackgroundImageFix" result="shape"/>
<feGaussianBlur stdDeviation="0.125" result="effect1_foregroundBlur_57_1353"/>
</filter>
<filter id="filter7_f_57_1353" x="92.3499" y="728.076" width="49.9624" height="51.283" filterUnits="userSpaceOnUse" color-interpolation-filters="sRGB">
<feFlood flood-opacity="0" result="BackgroundImageFix"/>
<feBlend mode="normal" in="SourceGraphic" in2="BackgroundImageFix" result="shape"/>
<feGaussianBlur stdDeviation="0.5" result="effect1_foregroundBlur_57_1353"/>
</filter>
<filter id="filter8_f_57_1353" x="71.575" y="752.888" width="12.5999" height="12.5999" filterUnits="userSpaceOnUse" color-interpolation-filters="sRGB">
<feFlood flood-opacity="0" result="BackgroundImageFix"/>
<feBlend mode="normal" in="SourceGraphic" in2="BackgroundImageFix" result="shape"/>
<feGaussianBlur stdDeviation="0.05" result="effect1_foregroundBlur_57_1353"/>
</filter>
<filter id="filter9_f_57_1353" x="84.725" y="759.237" width="6.25005" height="6.25005" filterUnits="userSpaceOnUse" color-interpolation-filters="sRGB">
<feFlood flood-opacity="0" result="BackgroundImageFix"/>
<feBlend mode="normal" in="SourceGraphic" in2="BackgroundImageFix" result="shape"/>
<feGaussianBlur stdDeviation="0.05" result="effect1_foregroundBlur_57_1353"/>
</filter>
<linearGradient id="paint0_linear_57_1353" x1="40.137" y1="152.535" x2="85.6944" y2="206.474" gradientUnits="userSpaceOnUse">
<stop stop-color="#77B725"/>
<stop offset="1" stop-color="#A3DA32"/>
</linearGradient>
<linearGradient id="paint1_linear_57_1353" x1="40.1369" y1="152.534" x2="85.6944" y2="206.474" gradientUnits="userSpaceOnUse">
<stop stop-color="#8FCD20"/>
<stop offset="1" stop-color="#AEE137"/>
</linearGradient>
<linearGradient id="paint2_linear_57_1353" x1="52.4199" y1="160.701" x2="87.149" y2="201.745" gradientUnits="userSpaceOnUse">
<stop offset="0.26" stop-color="#CDFF7A" stop-opacity="0"/>
<stop offset="0.74" stop-color="#CDFF7A" stop-opacity="0.8"/>
<stop offset="1" stop-color="#CDFF7A" stop-opacity="0"/>
</linearGradient>
<radialGradient id="paint3_radial_57_1353" cx="0" cy="0" r="1" gradientUnits="userSpaceOnUse" gradientTransform="translate(-8.85515 275.939) rotate(-16.5187) scale(149.296 149.141)">
<stop stop-color="#992D56"/>
<stop offset="0.528" stop-color="#FB3E4F"/>
<stop offset="1" stop-color="#FA3D3C"/>
</radialGradient>
<radialGradient id="paint4_radial_57_1353" cx="0" cy="0" r="1" gradientUnits="userSpaceOnUse" gradientTransform="translate(98.4718 251.668) rotate(147.495) scale(113.311 136.51)">
<stop stop-color="#FF787A" stop-opacity="0.8"/>
<stop offset="0.386" stop-color="#FF787A" stop-opacity="0"/>
</radialGradient>
<radialGradient id="paint5_radial_57_1353" cx="0" cy="0" r="1" gradientUnits="userSpaceOnUse" gradientTransform="translate(53.1921 229.023) rotate(85.9647) scale(120.802 145.713)">
<stop stop-color="#F24961"/>
<stop offset="0.367" stop-color="#F24961" stop-opacity="0"/>
</radialGradient>
<linearGradient id="paint6_linear_57_1353" x1="87.5328" y1="200.174" x2="38.9655" y2="312.797" gradientUnits="userSpaceOnUse">
<stop offset="0.583" stop-color="#CB2568" stop-opacity="0"/>
<stop offset="1" stop-color="#B13591"/>
</linearGradient>
<radialGradient id="paint7_radial_57_1353" cx="0" cy="0" r="1" gradientUnits="userSpaceOnUse" gradientTransform="translate(13.2989 185.054) rotate(49.6264) scale(135.048 161.765)">
<stop stop-color="#88424B"/>
<stop offset="0.39" stop-color="#D02953" stop-opacity="0"/>
</radialGradient>
<linearGradient id="paint8_linear_57_1353" x1="66.5" y1="759.925" x2="241.438" y2="759.925" gradientUnits="userSpaceOnUse">
<stop stop-color="#BEA8C2"/>
<stop offset="0.145" stop-color="#C1A6D1"/>
<stop offset="0.371" stop-color="#C19FE2"/>
<stop offset="0.424" stop-color="#D8B8FF"/>
<stop offset="0.485" stop-color="#E4CFFF"/>
<stop offset="0.893" stop-color="#DECFF8"/>
<stop offset="1" stop-color="#DCCFF4"/>
</linearGradient>
<linearGradient id="paint9_linear_57_1353" x1="127.437" y1="724.769" x2="158.3" y2="789.219" gradientUnits="userSpaceOnUse">
<stop stop-color="#B1A09A"/>
<stop offset="0.4" stop-color="#CABABE"/>
<stop offset="0.823" stop-color="#E6D3C4"/>
</linearGradient>
<radialGradient id="paint10_radial_57_1353" cx="0" cy="0" r="1" gradientUnits="userSpaceOnUse" gradientTransform="translate(132.906 752.5) rotate(85.8554) scale(27.0238 53.6356)">
<stop offset="0.61" stop-color="#B79A90"/>
<stop offset="1" stop-color="#BA9E96" stop-opacity="0"/>
</radialGradient>
<linearGradient id="paint11_linear_57_1353" x1="149.313" y1="698.4" x2="180.956" y2="765.394" gradientUnits="userSpaceOnUse">
<stop stop-color="#E7BB42"/>
<stop offset="0.053" stop-color="#F1C740"/>
<stop offset="0.569" stop-color="#F2C941"/>
<stop offset="0.599" stop-color="#FFD85E"/>
<stop offset="0.622" stop-color="#F9C83F"/>
<stop offset="1" stop-color="#FAB842"/>
</linearGradient>
<linearGradient id="paint12_linear_57_1353" x1="180.956" y1="761.094" x2="174.119" y2="746.644" gradientUnits="userSpaceOnUse">
<stop offset="0.067" stop-color="#F8B644"/>
<stop offset="0.301" stop-color="#FAB842" stop-opacity="0"/>
</linearGradient>
<linearGradient id="paint13_linear_57_1353" x1="129" y1="758.362" x2="145.6" y2="719.1" gradientUnits="userSpaceOnUse">
<stop stop-color="#F2C941"/>
<stop offset="1" stop-color="#F2C941" stop-opacity="0"/>
</linearGradient>
<radialGradient id="paint14_radial_57_1353" cx="0" cy="0" r="1" gradientUnits="userSpaceOnUse" gradientTransform="translate(128.613 742.662) rotate(25.7564) scale(81.9719 59.7148)">
<stop stop-color="#DB9718"/>
<stop offset="0.339" stop-color="#E7AB16"/>
<stop offset="1" stop-color="#DC9819" stop-opacity="0"/>
</radialGradient>
<linearGradient id="paint15_linear_57_1353" x1="107.319" y1="719.494" x2="139.744" y2="779.256" gradientUnits="userSpaceOnUse">
<stop stop-color="#E9BD42"/>
<stop offset="0.286" stop-color="#F2C841"/>
<stop offset="0.638" stop-color="#F2C941"/>
<stop offset="0.659" stop-color="#FED65A"/>
<stop offset="0.681" stop-color="#FAC840"/>
<stop offset="1" stop-color="#FABF41"/>
</linearGradient>
<linearGradient id="paint16_linear_57_1353" x1="105.175" y1="765.975" x2="122.156" y2="735.9" gradientUnits="userSpaceOnUse">
<stop stop-color="#D28A30"/>
<stop offset="0.28" stop-color="#D28A30" stop-opacity="0"/>
</linearGradient>
<radialGradient id="paint17_radial_57_1353" cx="0" cy="0" r="1" gradientUnits="userSpaceOnUse" gradientTransform="translate(84.862 759.532) rotate(28.94) scale(37.9409 40.8704)">
<stop stop-color="#D48B1F"/>
<stop offset="1" stop-color="#D99A40" stop-opacity="0"/>
</radialGradient>
<radialGradient id="paint18_radial_57_1353" cx="0" cy="0" r="1" gradientUnits="userSpaceOnUse" gradientTransform="translate(105.787 753.532) rotate(25.597) scale(85.0306 61.6684)">
<stop stop-color="#DB9718"/>
<stop offset="0.339" stop-color="#E7AB16"/>
<stop offset="1" stop-color="#DC9819" stop-opacity="0"/>
</radialGradient>
<radialGradient id="paint19_radial_57_1353" cx="0" cy="0" r="1" gradientUnits="userSpaceOnUse" gradientTransform="translate(78.0225 755.823) rotate(74.899) scale(12.7448)">
<stop stop-color="#D3AD48"/>
<stop offset="0.444" stop-color="#D7A541"/>
<stop offset="0.808" stop-color="#D48F27"/>
</radialGradient>
<radialGradient id="paint20_radial_57_1353" cx="0" cy="0" r="1" gradientUnits="userSpaceOnUse" gradientTransform="translate(88.2297 761.094) rotate(76.954) scale(4.10999 4.11)">
<stop offset="0.436" stop-color="#D3A53E"/>
<stop offset="1" stop-color="#D48F27"/>
</radialGradient>
<clipPath id="clip0_57_1353">
<rect width="1280" height="832" fill="white"/>
</clipPath>
<clipPath id="clip1_57_1353">
<rect width="1280" height="832" fill="white"/>
</clipPath>
<clipPath id="clip2_57_1353">
<rect width="207" height="171" fill="white" transform="translate(899 -10)"/>
</clipPath>
<clipPath id="clip3_57_1353">
<rect width="210" height="172" fill="white" transform="translate(878 270)"/>
</clipPath>
<clipPath id="clip4_57_1353">
<rect width="169.614" height="168.619" fill="white" transform="translate(23.7708 134) rotate(23.3275)"/>
</clipPath>
<clipPath id="clip5_57_1353">
<rect width="178" height="166" fill="white" transform="translate(892 659)"/>
</clipPath>
</defs>
</svg>
